<svg width="131" height="28" viewBox="0 0 131 28" fill="none" xmlns="http://www.w3.org/2000/svg">
<path d="M120.45 22.5099C119.463 25.9947 116.57 28 112.592 28C107.53 28 104.078 24.351 104.078 18.9923C104.078 13.8308 107.661 10.083 112.592 10.083C118.444 10.083 120.68 14.6527 120.713 19.3538V20.0442H107.53C107.825 23.1674 109.831 25.0742 112.56 25.0742C114.598 25.0742 116.307 24.2851 116.899 22.5099H120.45ZM107.562 17.4142H117.162C116.932 14.8499 115.452 12.9103 112.56 12.9103C109.798 12.9103 107.957 14.7184 107.562 17.4142Z" fill="#021F45"/>
<path d="M98.4126 4.06689H102.029V27.54H98.4126V4.06689Z" fill="#021F45"/>
<path d="M88.5061 10.116C93.2073 10.116 96.3633 13.6665 96.3633 18.9923C96.3633 24.351 93.1744 27.9673 88.5061 27.9673C85.5145 27.9673 83.6077 26.0276 82.983 24.5154H82.9502V27.54H79.2681V4.06689H82.9173V13.6994H82.9502C83.5419 12.0885 85.5145 10.116 88.5061 10.116ZM82.7201 18.9923C82.7201 22.1484 84.331 25.0413 87.75 25.0413C91.0704 25.0413 92.78 22.4114 92.78 18.9923C92.78 15.6062 91.0046 13.0419 87.75 13.0419C84.3639 13.0419 82.7201 15.902 82.7201 18.9923Z" fill="#021F45"/>
<path d="M62.1773 15.7053C62.6046 13.0753 64.8073 10.0508 69.2455 10.0508C75.0315 10.0508 76.3138 13.6013 76.3138 17.0204V23.7269C76.3138 25.0419 76.4123 26.5871 76.6095 27.5405H72.8946C72.8288 26.8502 72.7961 26.1927 72.7961 25.4365V24.6803H72.7632C72.2372 26.0282 70.8235 27.9679 67.3387 27.9679C63.4266 27.9679 61.3555 25.535 61.3555 22.9051C61.3555 18.171 67.1744 17.8422 69.6729 17.4477C71.8756 17.0861 72.7632 16.593 72.7632 15.1793C72.7632 13.7986 71.481 12.9109 69.3113 12.9109C67.4374 12.9109 66.0238 13.9958 65.6291 15.7053H62.1773ZM64.9388 22.8064C64.9388 24.2201 66.1552 25.2064 68.1605 25.2064C70.5276 25.2064 72.8288 23.7269 72.8288 19.6505V17.7766C72.4673 18.7298 71.6126 19.5847 68.5551 20.1764C66.1881 20.6037 64.9388 21.327 64.9388 22.8064Z" fill="#021F45"/>
<path d="M49.9057 10.116C52.9302 10.116 54.8697 12.0885 55.4616 13.6994H55.4945V4.06689H59.1436V27.54H55.4616V24.5154H55.4287C54.8368 26.0276 52.9302 27.9673 49.9384 27.9673C45.2372 27.9673 42.0483 24.351 42.0483 18.9923C42.0483 13.6665 45.2372 10.116 49.9057 10.116ZM45.6318 18.9923C45.6318 22.4114 47.3412 25.0413 50.6617 25.0413C54.1137 25.0413 55.7246 22.1484 55.7246 18.9923C55.7246 15.902 54.0479 13.0419 50.6617 13.0419C47.4399 13.0419 45.6318 15.6062 45.6318 18.9923Z" fill="#021F45"/>
<path d="M25.3364 27.5397V10.5431H28.887V13.6005C29.8075 11.6609 31.3526 10.1157 33.9827 10.1157C38.4208 10.1157 40.1304 13.0088 40.1304 16.8223V27.5397H36.5469V17.4798C36.5469 14.7512 35.5606 13.206 33.1936 13.206C30.8265 13.206 28.9526 15.2443 28.9526 19.5509V27.5397H25.3364Z" fill="#021F45"/>
<path d="M22.2391 7.6832H18.4584V4.06689H22.2391V7.6832ZM18.3926 27.54V10.5433H22.0089V27.54H18.3926Z" fill="#021F45"/>
<path d="M1.85986 27.54V4.06689H16.588V7.25581H5.64054V14.061H15.7004V17.2171H5.64054V27.54H1.85986Z" fill="#021F45"/>
<path d="M117.991 6.03008L121.399 6.47857C121.779 6.52855 122.131 6.7025 122.402 6.97342C122.672 7.24329 122.846 7.59441 122.897 7.97267L123.344 11.3065C123.361 11.4371 123.473 11.5347 123.604 11.5347C123.736 11.5347 123.848 11.4371 123.865 11.3065L124.312 7.9729C124.363 7.59448 124.537 7.24324 124.807 6.97326C125.078 6.70243 125.43 6.52848 125.81 6.47833L129.204 6.03019C129.335 6.01278 129.434 5.90036 129.434 5.76734C129.434 5.63434 129.335 5.52192 129.204 5.50449L125.81 5.05635C125.43 5.00621 125.078 4.83226 124.807 4.56143C124.537 4.29146 124.363 3.94022 124.312 3.5618L123.865 0.228231C123.848 0.0975515 123.736 -1.1375e-08 123.604 0C123.473 1.155e-08 123.361 0.0975515 123.344 0.228231L122.897 3.56201C122.846 3.94029 122.672 4.29141 122.402 4.56127C122.131 4.83219 121.779 5.00612 121.399 5.05612L117.991 5.50459C117.859 5.52195 117.76 5.63436 117.76 5.76734C117.76 5.90034 117.859 6.01274 117.991 6.03008Z" fill="#021F45"/>
</svg>
