<svg fill="none" xmlns="http://www.w3.org/2000/svg" viewBox="0 0 433 112"><path d="M113.93 64.342c-.249-.249 0-.498.249-.498h1.369c10.335-.996 19.051-7.72 19.051-19.673 0-13.696-11.082-20.046-23.782-20.046H51.424c-.747 0-1.494.622-1.494 1.494v60.887c0 .747.622 1.494 1.494 1.494H70.35c.747 0 1.494-.623 1.494-1.494V67.082c0-.747.623-1.494 1.494-1.494h12.327c1.743 0 3.362.747 4.482 1.992l17.557 19.797c.374.125.747.374 1.121.498h25.027c1.245 0 1.868-1.494.996-2.49L113.93 64.342Zm-7.969-13.073H73.089c-.747 0-1.494-.623-1.494-1.495V40.56c0-.747.623-1.494 1.494-1.494h32.374c4.607 0 7.72 2.241 7.72 5.852 0 4.234-2.864 6.35-7.222 6.35Zm247.783-27.144h-18.926c-.747 0-1.494.622-1.494 1.494v40.466c0 .748.623 1.495 1.494 1.495h18.926c.747 0 1.495-.623 1.495-1.495v-40.59c0-.748-.748-1.37-1.495-1.37Zm0 51.922h-18.926c-.747 0-1.494.623-1.494 1.494v8.965c0 .747.623 1.494 1.494 1.494h18.926c.747 0 1.495-.622 1.495-1.494v-8.965c0-.871-.748-1.494-1.495-1.494Zm78.194 9.961-24.405-32.374c-.498-.747-.498-1.743.124-2.365l23.035-25.277a1.128 1.128 0 0 0-.871-1.867h-19.922c-.498 0-.996.249-1.37.622l-22.288 24.405c-.124.124-.124.124-.249.124h-.747c-.249 0-.374-.124-.374-.373V25.37c0-.747-.622-1.37-1.369-1.37h-18.179c-.747 0-1.37.623-1.37 1.37v61.01c0 .623.498 1.245 1.245 1.245h18.428c.623 0 1.245-.498 1.245-1.245V75.05c0-.499.125-.997.498-1.246l8.094-8.716s.124-.124.249-.124h1.12c.125 0 .25.124.25.124l16.311 21.79c.373.498.871.747 1.494.747h18.303c.748.125 1.246-.871.748-1.618ZM163.983 38.693h18.553c.747 0 1.494-.623 1.494-1.494V25.494c0-.747-.623-1.494-1.494-1.494h-38.35c-.748 0-1.495.623-1.495 1.494v61.012c0 .747.623 1.494 1.495 1.494h38.35c.747 0 1.494-.623 1.494-1.494V74.802c0-.748-.623-1.495-1.494-1.495h-18.677c-.747 0-1.494-.622-1.494-1.494v-7.595c0-.872.747-1.619 1.618-1.619h18.553c.747 0 1.494-.622 1.494-1.494V49.65c0-.747-.623-1.494-1.494-1.494h-18.553c-.871 0-1.618-.747-1.618-1.619v-6.6c0-.497.747-1.244 1.618-1.244Zm49.93 0h18.552c.748 0 1.495-.623 1.495-1.494V25.494c0-.747-.623-1.494-1.495-1.494h-38.35c-.747 0-1.494.623-1.494 1.494v61.012c0 .747.623 1.494 1.494 1.494h38.35c.748 0 1.495-.623 1.495-1.494V74.802c0-.748-.623-1.495-1.495-1.495h-18.677c-.747 0-1.494-.622-1.494-1.494v-7.595c0-.872.747-1.619 1.619-1.619h18.552c.748 0 1.495-.622 1.495-1.494V49.65c0-.747-.623-1.494-1.495-1.494h-18.552c-.872 0-1.619-.747-1.619-1.619v-6.6c0-.497.747-1.244 1.619-1.244Zm-192.621 0h18.552c.747 0 1.495-.623 1.495-1.494V25.494c0-.747-.623-1.494-1.495-1.494H1.494C.747 24 0 24.623 0 25.494v61.012C0 87.253.623 88 1.494 88h16.81c.747 0 1.494-.623 1.494-1.494V64.342c0-.871.747-1.618 1.618-1.618H39.97c.747 0 1.494-.623 1.494-1.494V49.774c0-.747-.623-1.494-1.494-1.494H21.416c-.871 0-1.618-.747-1.618-1.619v-6.599c-.125-.622.622-1.37 1.494-1.37Zm280.154-14.568h-57.401c-.747 0-1.494.622-1.494 1.494v60.887c0 .747.622 1.494 1.494 1.494h18.926c.747 0 1.494-.623 1.494-1.494V66.335c0-.374.374-.747.747-.747h36.358c14.568 0 25.65-7.596 25.65-21.043-.125-13.821-11.206-20.42-25.774-20.42Zm-2.864 27.144h-32.747c-.747 0-1.494-.623-1.494-1.495V40.56c0-.747.622-1.494 1.494-1.494h32.373c4.607 0 7.72 2.241 7.72 5.852-.124 4.234-2.988 6.35-7.346 6.35Z" fill="#17D1C6"/></svg>
