<svg width="123" height="40" viewBox="0 0 123 40" fill="none" xmlns="http://www.w3.org/2000/svg">
<g clip-path="url(#clip0_3337_1809)">
<path d="M30.0749 0.518799V21.6578C30.0749 21.6578 30.2385 29.2924 24.9495 33.6961C24.9495 33.6961 20.5909 37.2315 15.7473 39.4813H15.6966C10.6783 37.3217 6.5734 33.6961 6.5734 33.6961C1.27878 29.2924 1.36336 21.6578 1.36336 21.6578V0.518799H30.0749Z" fill="#D7C9B1"/>
<path d="M30.0751 0H0.844728V21.6577C0.844728 21.9735 0.822174 29.5856 6.24084 34.0964L6.22956 34.0851C6.39872 34.2374 10.4528 37.7897 15.4881 39.9605L15.5896 40H15.8602L15.9617 39.9493C20.8109 37.6995 25.2315 34.1303 25.2766 34.0964C30.7009 29.5799 30.6051 21.9679 30.5938 21.6408V0H30.0751ZM29.5563 1.03186V21.7028C29.5563 22.34 29.4435 29.2811 24.6169 33.3014C24.5775 33.3296 20.3654 36.7296 15.7136 38.9287C10.9152 36.8198 6.9513 33.3465 6.91183 33.3127L6.90055 33.3014C1.93861 29.1627 1.87659 21.934 1.87659 21.669V1.03186H29.5563Z" fill="#7C0019"/>
<path d="M29.9621 11.8862H1.36328V0.518799H29.9621V11.8862Z" fill="#7C0019"/>
<path d="M1.93848 1.10522V1.31385H29.5675V1.10522H1.93848Z" fill="#D7C9B1"/>
<path d="M1.93848 7.02002V7.22865H29.5675V7.02002H1.93848Z" fill="#D7C9B1"/>
<path d="M1.87646 10.5498V10.7584H29.5054V10.5498H1.87646Z" fill="#D7C9B1"/>
<path d="M13.3905 35.4609H13.7683C13.819 35.4609 13.8021 35.4158 13.8021 35.4158C13.6499 34.7335 13.7288 34.1979 13.757 34.04C13.757 34.04 13.7739 33.9949 13.7175 33.9949H13.3398C13.289 33.9949 13.3059 34.0343 13.3059 34.0343C13.4356 34.5587 13.3849 35.2241 13.351 35.4158C13.351 35.4158 13.3285 35.4665 13.3849 35.4665L13.3905 35.4609Z" fill="#7C0019"/>
<path d="M14.8001 33.9442C14.1968 34.0006 14.2306 34.711 14.2306 34.711C14.2701 35.3538 14.9354 35.4722 14.9354 35.4722C14.755 35.9628 14.2701 36.1094 14.2701 36.1094C14.1573 36.1545 14.2419 36.1883 14.2419 36.1883C14.3885 36.2391 14.5971 36.1545 14.5971 36.1545C15.488 35.7542 15.5106 34.8238 15.5106 34.8238C15.5275 33.8765 14.8057 33.9442 14.8057 33.9442M15.0144 35.2523C14.7268 35.258 14.6535 34.8069 14.6535 34.8069C14.5802 34.3107 14.7719 34.2825 14.7719 34.2825C14.9749 34.2205 15.0651 34.6377 15.0651 34.6377C15.1666 35.1226 15.0144 35.2467 15.0144 35.2467V35.2523Z" fill="#7C0019"/>
<path d="M17.0385 34.5193C17.0385 34.5193 16.9596 33.9329 16.407 33.9385C16.407 33.9385 15.86 33.9216 15.8375 34.6828C15.8375 34.6828 15.8149 35.4835 16.5085 35.444C16.5085 35.444 17.1851 35.3989 17.0441 34.5193M16.5141 35.1903C16.2547 35.2861 16.2265 34.7505 16.2265 34.7505C16.1984 34.243 16.407 34.1923 16.407 34.1923C16.6156 34.1415 16.6776 34.5137 16.6776 34.5137C16.7735 35.0944 16.5198 35.1903 16.5198 35.1903H16.5141Z" fill="#7C0019"/>
<path d="M17.2022 35.647C17.7886 35.7598 17.9408 35.3481 17.9408 35.3481C18.1269 34.7617 17.3939 34.7335 17.3939 34.7335L17.5123 33.978C17.5123 33.978 18.2453 34.0118 18.4427 33.916C18.4427 33.916 18.4878 33.8878 18.4652 33.9949C18.4652 33.9949 18.4257 34.243 18.1833 34.2655L17.8224 34.2937L17.7886 34.508C17.7886 34.508 18.4145 34.4967 18.4032 35.1677C18.4032 35.1677 18.3806 35.6865 17.7717 35.8161C17.7717 35.8161 17.4841 35.8782 17.1571 35.7428C17.1571 35.7428 17.1063 35.7203 17.1345 35.6808C17.1345 35.6808 17.1571 35.6301 17.2078 35.6414L17.2022 35.647Z" fill="#7C0019"/>
<path d="M15.054 21.5168C15.0991 21.4604 15.1611 21.4999 15.2119 21.5168C15.257 21.5281 15.2626 21.6239 15.2852 21.669C15.3021 21.7029 15.3923 21.7931 15.398 21.8213C15.4713 22.1596 15.398 22.6051 15.2457 22.8644C15.2006 22.9434 15.1329 22.9828 15.0822 22.9885C15.0202 22.9885 14.9976 22.8983 14.9751 22.8644C14.8792 22.7291 14.9525 22.4021 14.9751 22.2498C14.9976 22.0525 14.8454 21.7367 14.9469 21.5957L15.054 21.5112V21.5168Z" fill="#7C0019"/>
<path d="M10.436 21.8721C10.5205 21.8495 10.6389 21.889 10.6897 21.8721L10.8025 21.827C10.9321 21.7424 11.0562 21.7706 11.1859 21.7819C11.2535 21.7875 11.4453 21.8721 11.5073 21.8777C11.6088 21.889 12.0937 21.9397 12.6124 22.0187C12.6124 22.0187 12.8887 21.9792 12.8154 21.9059C12.8605 21.9567 12.8098 21.8664 12.7027 21.827L12.6688 21.7875C12.6688 21.7875 12.5786 21.7086 12.7478 21.6522C12.6857 21.6691 12.8605 21.6296 12.8887 21.5902C12.9564 21.5169 12.8605 21.4436 12.8605 21.4436C12.6181 21.359 12.3418 21.5169 11.9753 21.4774C11.7948 21.4605 11.5355 21.359 11.2817 21.3984C11.0054 21.4492 10.5995 21.6071 10.4021 21.7537C10.4021 21.7537 10.3119 21.9172 10.4416 21.8721H10.436Z" fill="#7C0019"/>
<path d="M13.526 19.876C13.7741 19.8591 13.7854 20.1185 13.7911 20.0903C13.7629 20.2763 13.3118 20.2933 13.2046 20.4342C12.8889 20.8458 13.0186 21.2405 12.2686 21.2856C12.2686 21.2856 12.1164 21.2518 12.1784 21.1898C12.2235 21.139 12.404 21.0939 12.4716 21.0488C12.5675 20.9924 12.5619 20.8402 12.6239 20.7387C12.6352 20.7161 12.7197 20.688 12.7423 20.6654C12.9509 20.3835 12.9791 20.0959 13.3456 19.9267C13.3625 19.9155 13.4979 19.876 13.526 19.8704V19.876Z" fill="#7C0019"/>
<path d="M15.9224 18.7652C16.007 18.7144 16.0916 18.7652 16.148 18.8159C16.1818 18.8385 16.4525 19.4982 16.4694 19.5602C16.5032 19.797 16.5314 20.3496 16.4694 20.5244C16.3792 20.7725 16.148 20.9586 16.1987 21.3984C16.2269 21.6577 16.3397 21.8551 16.4468 22.0806C16.4581 22.1201 16.5709 22.3344 16.5765 22.3795C16.616 22.6163 16.4919 22.9208 16.4694 23.1069C16.413 23.5805 16.5991 24.009 16.5258 24.4601C16.4919 24.6575 16.4299 24.7533 16.3228 24.8717L16.2382 24.945C16.2156 24.9901 16.1705 25.0071 16.1311 25.0409L16.0803 25.0916C16.0014 25.1086 15.9901 25.1593 15.9619 25.1593C15.7589 25.2044 15.7194 25.086 15.7307 25.1142C15.5221 24.5334 15.8717 23.8568 15.6912 23.2986C15.6518 23.1689 15.4995 23.0392 15.477 22.9039C15.4093 22.402 15.8773 22.137 15.8717 21.7987C15.8717 21.5563 15.5559 21.2461 15.4826 21.0093C15.3924 20.733 15.336 20.1974 15.4544 19.8534C15.4826 19.7688 15.5898 19.6279 15.6236 19.5151C15.68 19.3008 15.7702 19.1204 15.7984 18.9794C15.8097 18.9343 15.8378 18.8723 15.8604 18.8328C15.866 18.8159 15.9112 18.7652 15.9224 18.7595V18.7652Z" fill="#7C0019"/>
<path d="M21.9047 17.5697C22.243 17.5302 22.3953 17.6656 22.2374 17.9531L22.1697 18.0152C22.1697 18.0152 22.0513 18.1448 22.0344 18.1618C21.8709 18.2802 21.7186 18.3591 21.589 18.5113C21.5438 18.5621 21.51 18.6918 21.4593 18.7369C21.3747 18.7989 21.0533 18.9399 20.9687 18.9568C20.5571 19.0245 19.9989 18.6128 19.9425 18.376C19.8917 18.173 19.9425 17.9757 20.0327 17.9306C20.168 17.8629 20.5345 17.8967 20.6586 17.8855C20.9744 17.8629 21.1717 17.8798 21.4142 17.7952C21.5608 17.7501 21.7299 17.5979 21.9047 17.5753V17.5697Z" fill="#7C0019"/>
<path d="M20.1569 17.4289C20.1569 17.4289 20.3486 17.5078 20.5234 17.4683C20.6418 17.4401 20.873 17.333 20.9857 17.3161C21.0534 17.2992 21.1492 17.333 21.2169 17.3161C21.403 17.2597 21.7469 16.8932 21.3353 16.8537C21.1831 16.8368 20.7376 17.006 20.6023 17.0454C20.4613 17.0793 20.3768 17.1018 20.2583 17.1638C20.2302 17.1808 20.0666 17.3104 20.0892 17.2879C20.0892 17.2879 19.9821 17.3781 20.1625 17.4289H20.1569Z" fill="#7C0019"/>
<path d="M17.2079 18.1224C17.0895 18.1055 17.0895 17.9025 16.785 17.9702C16.5764 18.0153 16.5143 18.3254 16.2042 18.3198L16.052 18.2465C15.9166 18.2126 15.8208 18.2634 15.7024 18.2014C15.1611 17.9476 16.1253 16.6451 16.4354 16.662C16.4523 16.662 16.6102 16.7184 16.6327 16.741C16.7286 16.8255 16.7286 17.1864 16.8188 17.3217C16.8865 17.412 16.9993 17.4063 17.0895 17.474C17.1853 17.5473 17.3714 17.8067 17.394 17.9363C17.394 17.9363 17.4447 18.1563 17.2022 18.1281L17.2079 18.1224Z" fill="#7C0019"/>
<path d="M21.6851 16.8255C21.6851 16.8255 21.6907 16.8143 21.6963 16.803C21.6851 16.8255 21.6851 16.8255 21.6851 16.8255Z" fill="#7C0019"/>
<path d="M14.8734 18.2182C14.6647 18.3366 14.2024 18.5171 14.1065 18.7201C14.0501 18.8272 14.0501 18.9174 14.0107 19.0471C14.0107 19.0584 13.9486 19.0809 13.9317 19.1204C13.7062 19.1204 13.5088 19.1091 13.3171 19.1599C13.1649 19.205 12.945 19.3629 12.7758 19.3911C12.4319 19.4474 12.1725 19.3008 11.8511 19.3516C11.7101 19.3741 11.6143 19.5264 11.5015 19.5828C11.4 19.6335 11.3605 19.6335 11.2816 19.7012L11.2083 19.7801C11.197 19.8139 11.1632 19.8872 11.1406 19.9267C11.073 20.0338 11.0448 20.1353 11.0279 20.2538C11.011 20.3609 10.9489 20.6259 10.8925 20.733C10.8643 20.7838 10.7177 20.9022 10.7008 20.9529C10.6896 20.9868 10.6557 21.0206 10.7008 21.0713C10.6501 21.015 10.6614 21.1221 10.9376 21.139C11.2421 21.1446 11.9075 20.9417 11.9075 20.9417L12.2289 20.7725C12.2909 20.7274 12.539 20.5357 12.5898 20.4737C12.8209 20.1861 13.4468 19.1373 13.9261 19.408L14.0107 19.47C14.1291 19.6617 13.9825 20.2199 13.8923 20.344L13.7851 20.4737C13.7005 20.5019 13.6385 20.7274 13.6272 20.8289C13.6047 20.9924 13.6554 21.1446 13.6667 21.2349C13.6893 21.4322 13.7118 21.6859 13.5878 21.934C13.5596 21.9792 13.4919 22.0694 13.5088 22.1991C13.5314 22.3513 13.7457 22.4584 13.7795 22.5881C13.7964 22.6501 13.8528 22.6614 13.7795 22.7798C13.74 22.8475 13.5652 22.9546 13.5088 23.011C13.4412 23.0787 13.4976 23.1914 13.5483 23.2366C13.6836 23.355 13.7908 23.3719 13.8979 23.5128C14.0445 23.7046 14.0389 23.8681 14.3603 23.8963C14.614 23.9188 14.9749 23.9357 14.8226 23.5861L14.7437 23.4565C14.6535 23.2309 14.4956 23.0279 14.473 22.7798C14.4448 22.4641 14.6986 22.3062 14.5914 22.0468C14.5069 21.8495 14.1234 21.872 14.0896 21.6183C14.0727 21.4773 14.2193 21.1728 14.2475 21.0375C14.2757 20.8514 14.2249 20.733 14.287 20.5752C14.3264 20.4624 14.4956 20.3327 14.5125 20.1917C14.5463 19.938 14.349 19.7745 14.4392 19.4982C14.4787 19.3572 14.7042 19.3685 14.7888 19.267C14.8959 19.126 14.8395 18.9287 14.9016 18.7257C14.9072 18.7031 14.9636 18.5847 14.9749 18.5622C14.9692 18.5509 15.02 18.3028 15.02 18.3028C14.9861 18.1449 14.8903 18.2126 14.879 18.207M12.4319 20.2538C12.2176 20.3045 12.195 19.8421 11.6763 20.0226C11.6481 20.0338 11.5015 20.1635 11.4902 20.1861C11.4282 20.3214 11.462 20.6766 11.3944 20.7048C11.3944 20.7048 11.1914 20.7556 11.2309 20.5018C11.2929 20.0959 11.3718 20.0226 11.5748 19.8478C11.603 19.8252 11.6819 19.7688 11.7214 19.7576C11.9639 19.7012 12.415 19.797 12.4995 19.9211C12.5672 20.0226 12.4206 20.2538 12.4319 20.2481V20.2538Z" fill="#7C0019"/>
<path d="M26.5455 17.2034C26.5117 17.0173 25.9986 17.0286 25.79 16.7748C25.711 16.6733 25.7674 16.617 25.79 16.5436C25.8464 16.3237 26.3144 16.4534 26.4271 16.2617C26.4722 16.1771 26.4892 15.9403 26.4553 15.9065C26.1621 15.5456 25.5419 15.7204 25.1077 15.5456C24.8991 15.461 24.6341 15.2862 24.4142 15.2017C24.1379 15.0945 23.9236 15.0776 23.6417 14.9705C23.5797 14.9423 23.4556 14.8521 23.3879 14.8239C23.0778 14.6998 22.8354 14.6773 22.5252 14.542C22.4914 14.5307 22.3956 14.4743 22.3561 14.4574C22.232 14.4066 22.1926 14.3954 22.0629 14.3502C21.5836 14.1755 20.9803 14.0232 20.2867 14.0683C19.9822 14.0852 19.6383 14.0288 19.1703 14.1642C19.0068 14.2036 18.7812 14.3446 18.629 14.3897C18.5219 14.4235 18.4316 14.4405 18.3358 14.4799C18.2005 14.5363 18.082 14.6153 17.896 14.6547C17.366 14.7731 16.6611 14.6435 16.1255 14.7337C15.6575 14.807 15.3925 15.1002 15.009 15.2355C14.8906 15.275 14.8455 15.2637 14.7271 15.3032C14.6594 15.3257 14.5016 15.3708 14.4452 15.399C14.2873 15.4836 14.1802 15.5062 13.9997 15.5795C13.9095 15.6189 13.8024 15.7035 13.7122 15.743C13.5825 15.805 13.5768 15.8276 13.4697 15.9009L13.3851 15.9629C13.3851 15.9629 13.199 16.1264 13.1765 16.1546C13.1032 16.2335 13.0299 16.3407 12.9679 16.4252C12.7705 16.6564 12.4773 16.9383 12.2349 17.1188C12.1446 17.1808 12.0826 17.1695 12.0037 17.2372C11.9135 17.3049 11.8289 17.3838 11.7443 17.4515C11.5413 17.5981 11.3383 17.6939 11.1184 17.8123L10.9775 17.9082C10.7914 18.0322 10.797 18.083 10.5997 18.207C10.47 18.2916 10.4192 18.4269 10.3008 18.5228C10.2219 18.5848 10.1373 18.7709 10.0809 18.8498C9.83846 19.2051 9.74825 19.7238 9.57345 20.1636C9.5227 20.2877 9.09981 20.8966 8.99832 20.9361L8.91938 21.0094C8.85735 21.0601 8.85735 21.0771 8.80661 21.1278C8.68256 21.2406 8.55851 21.3026 8.46265 21.4379C8.38371 21.5451 8.3386 21.6635 8.2653 21.7819C8.15253 21.9623 7.9721 22.1653 7.88188 22.3627C7.84241 22.436 7.81986 22.5093 7.79166 22.5769C7.78039 22.5882 7.77475 22.5995 7.76911 22.5995C7.724 22.6615 7.63942 22.9096 7.63942 22.9096C7.55484 23.1069 7.35186 23.2197 7.0812 23.6031C6.76544 23.6257 5.68284 23.3494 4.94419 22.9998C5.1077 23.1859 5.93657 23.7385 6.90641 23.8456C6.84438 23.9415 6.83875 24.0373 6.72034 24.0655C6.33127 24.1614 5.66028 23.9471 4.75247 23.6313C4.80322 23.7554 5.6039 24.2234 6.78236 24.2967C6.60756 24.4997 4.98929 24.4489 3.72626 24.105C3.67551 24.2403 5.30505 24.6012 6.20159 24.5899C6.04935 24.6688 5.64901 24.759 5.38963 24.8549C4.98366 24.8098 4.41416 24.7365 4.30139 24.697C4.32394 24.7816 4.72992 24.8887 5.0626 24.9677C4.7412 25.0804 4.26756 25.1481 4.08149 25.1876C4.21681 25.2214 4.72992 25.1368 5.27686 25.0071C5.7505 25.0974 6.47788 25.1932 6.87821 25.1763C6.77672 25.227 6.39894 25.4695 6.10573 25.6443C5.34452 25.7176 4.52129 25.7796 4.34086 25.8022C4.44235 25.8191 5.1077 25.8304 5.81816 25.8078C5.38399 26.0616 4.92163 26.3266 4.70173 26.4281C5.0344 26.3435 5.62081 26.1179 6.2185 25.7965C6.81619 25.774 7.37441 25.7289 7.60559 25.6443C7.52665 25.8191 7.04173 26.648 6.59629 26.8397C6.788 26.8058 7.41388 26.631 7.79166 25.6894C7.92699 25.7458 8.07923 25.7796 8.25403 25.7909C8.35552 25.9375 8.5867 26.3266 9.03215 26.3491C9.12237 26.6085 9.9456 27.9505 11.1071 27.4261C10.7745 27.2457 10.5715 27.0539 10.4023 26.5183C10.9154 26.4844 12.28 27.2344 12.6859 28.847C12.3645 28.7399 11.9586 28.5538 11.9191 28.3903C11.8289 28.7624 11.7725 29.2473 12.6014 30.0762C12.6183 30.251 12.6126 30.4653 12.6521 30.6683C12.7874 30.8092 12.9453 30.9164 13.0919 31.0404C13.1032 31.2716 13.0694 31.5986 13.684 31.7734C13.8926 31.9482 14.5636 32.1287 14.6651 32.2471C14.8681 32.3091 15.1613 32.326 15.3812 32.3091C15.3812 32.3091 15.6744 32.2583 15.7533 32.1456C15.8999 32.1399 16.0973 32.1343 16.9882 31.1814C17.1742 30.9558 16.9882 29.7266 17.0333 29.4278C17.1235 29.2135 17.1573 29.0105 17.2814 28.7455C17.2814 28.7455 17.3998 28.4805 17.631 28.379C17.6479 28.3734 17.6592 28.3734 17.6761 28.3677C18.1892 28.2493 18.8602 28.7342 19.1759 28.8696C19.2887 28.9147 19.3507 28.8921 19.4466 28.9485C19.4917 28.9711 19.5537 29.0782 19.6045 29.1007C19.7172 29.1628 19.8244 29.1458 19.9541 29.2135C20.1401 29.315 20.5123 29.8563 20.8393 29.7943C20.9408 29.7717 21.0197 29.5405 21.11 29.4842C21.2622 29.3883 21.4765 29.3996 21.6118 29.2925C21.7697 29.1684 21.702 29.0331 21.7246 28.8639C21.7246 28.8583 21.7979 28.7793 21.8035 28.7455C21.8768 28.7399 22.046 28.7455 22.1531 28.7117C22.1644 28.7117 22.2095 28.6553 22.2264 28.6384C22.2941 28.5707 22.2433 28.4974 22.2264 28.441C22.2038 28.379 22.046 28.3057 21.9952 28.255C21.8768 28.1422 21.6795 27.973 21.6062 27.8321C21.5723 27.7644 21.6174 27.7475 21.5667 27.6742C21.5159 27.5952 21.3806 27.5107 21.3411 27.4092C21.1945 27.0765 21.2509 26.3435 21.1833 26.2363C21.1212 26.1349 21.0479 26.1518 20.9859 26.0559C20.8562 25.8529 21.0141 25.1989 21.0254 24.9395C21.0367 24.7308 20.8337 24.8605 20.8337 24.8605C20.6645 25.2778 20.6814 25.4582 20.642 26.0559C20.6363 26.1067 20.563 26.4281 20.563 26.4788C20.563 26.6874 20.6814 27.037 20.6025 27.2908C20.5743 27.3697 20.4051 27.5276 20.1796 27.5219C20.095 27.5219 19.6608 27.4092 19.565 27.3697C19.5481 27.3584 19.4522 27.2569 19.4466 27.2513C19.2323 27.0821 19.1872 27.24 19.1759 27.3246C19.1703 27.4148 19.2041 27.4317 19.221 27.4825C19.2267 27.5332 19.3169 27.7137 19.3056 27.7306C19.3056 27.7475 19.2267 27.9505 18.8263 27.7137C18.5219 27.5332 18.2287 27.0257 18.2117 26.9412C18.1723 26.7495 18.2287 26.6029 18.2681 26.5352C18.4204 26.3999 18.5952 26.5859 18.7474 26.6705C18.7869 26.6931 18.8771 26.7551 18.9222 26.7664C19.0124 26.7833 19.1534 26.7495 19.1703 26.7495C19.7567 26.7156 20.36 26.9299 20.4615 26.5352C20.5292 26.2871 20.2867 26.1574 20.2416 26.0559C20.1852 25.9319 20.2134 25.9206 20.1852 25.7853C20.1852 25.774 20.1401 25.6838 20.1288 25.6725C20.0668 25.571 20.1119 25.4808 20.0555 25.368C19.9935 25.244 19.8187 25.165 19.7511 25.0579C19.6496 24.9169 19.6496 24.7365 19.5199 24.635C19.3225 24.4715 18.5331 24.2403 18.4429 24.0542C18.2907 23.761 18.4767 23.2254 18.4034 22.8645C18.364 22.6502 18.2963 22.5318 18.161 22.4021C18.1102 22.3514 18.0877 22.2724 18.1046 22.2048C18.1384 22.0751 18.2061 22.1089 18.2456 21.827C18.2681 21.6691 18.2287 21.4887 18.2456 21.3252C18.2456 21.297 18.3189 21.0432 18.3245 21.015C18.3583 20.5865 18.302 20.1354 18.2117 19.8253C18.1666 19.6731 18.0257 19.5434 17.9806 19.3968C17.9411 19.2784 17.9862 19.2051 17.9411 19.0866C17.9016 18.9795 17.7663 18.9062 17.7155 18.8216C17.6084 18.6694 17.6422 18.4044 17.4844 18.3198C17.366 18.2521 17.3265 18.3424 17.3321 18.3198C17.2926 18.4608 17.3039 18.5961 17.3716 18.7822C17.3998 18.8611 17.5464 18.9739 17.5689 19.0528C17.5971 19.1938 17.5464 19.3686 17.5689 19.5152L17.6422 19.6674C17.7043 20.0565 17.49 20.5696 17.3378 20.7839C17.225 20.9248 16.898 21.1109 16.8754 21.3252C16.8585 21.4605 16.9149 21.4605 16.9487 21.5169C16.9994 21.5902 17.1573 21.6804 17.1799 21.748C17.1968 21.7988 17.2193 21.7875 17.2363 21.8383L17.2588 21.9454C17.287 22.216 16.9318 22.2781 17.1066 22.5995C17.1573 22.6953 17.3208 22.6953 17.4111 22.7517C17.5859 22.8645 17.9185 23.1746 17.9524 23.4396C17.9693 23.558 17.9524 24.1783 17.9185 24.2516C17.8396 24.4207 17.4054 24.4884 17.4562 24.8323C17.5126 25.2045 18.488 25.0974 18.7643 25.2947C18.894 25.3849 18.9222 25.5823 18.9617 25.7627C18.9842 25.8586 18.8884 25.8924 18.8433 25.9149C18.7418 25.977 18.6685 25.9262 18.5331 25.9544C18.2174 26.0164 17.7099 26.163 17.5746 26.4168C17.4054 26.71 17.6028 27.116 17.5351 27.4543C17.4674 27.7588 17.2363 28.1365 17.0671 28.3846C16.9656 28.5369 16.8359 28.6835 16.7852 28.8978C16.6724 29.3545 16.7513 29.8901 16.7175 30.4202H16.7119C16.7119 30.4202 16.7344 30.7021 16.5427 30.9051C16.3341 31.1363 15.6011 31.8242 15.0767 31.8242C14.885 31.8185 14.806 31.7565 14.5918 31.6043C14.4564 31.593 14.152 31.5197 13.9772 31.3336C13.9208 31.2378 13.3457 30.6513 13.7065 30.4878C14.0448 30.3299 14.5974 30.6739 14.8511 30.8374C14.9526 30.8374 15.6969 30.8769 16.4863 29.8394C16.4469 29.2981 16.4074 28.6045 16.3454 28.4749C16.2664 28.2098 15.8153 27.7418 15.7195 27.4599C15.6575 27.2287 15.556 26.7833 15.6236 26.4732C15.5954 26.1292 15.3755 26.0503 15.2853 25.7683C15.2628 25.695 15.2289 25.6443 15.2177 25.6217C15.1895 25.5202 15.1725 25.43 15.1105 25.3398C14.9752 25.1312 14.8399 25.0861 14.7158 24.8775C14.5861 24.6632 14.6087 24.3982 14.4057 24.2628C14.2929 24.1895 14.1463 24.1839 14.0223 24.1106C13.9321 24.0542 13.8193 23.9245 13.7122 23.8794C13.5937 23.823 13.5543 23.8118 13.4359 23.7554C13.3738 23.7272 13.2667 23.6764 13.216 23.6482C13.1596 23.6144 13.1088 23.6482 13.0637 23.6088C12.9171 23.4847 13.0243 23.3663 12.951 23.1521C12.9453 23.1239 12.8833 23.1239 12.872 23.0731C12.81 23.0562 12.7029 22.9603 12.6183 23.0167C12.4999 23.1013 12.4717 23.0787 12.3984 23.2535C12.3589 23.372 12.28 23.7103 12.201 23.7948C12.1334 23.8794 12.0431 23.9922 11.936 24.0711C11.8345 24.1219 11.7443 24.1162 11.7443 24.1162L11.4567 24.1557L11.3158 24.3756C11.3158 24.3756 11.1579 24.3531 11.0733 24.3531C11.0508 24.4095 10.859 24.5504 10.8027 24.6068C10.5602 24.7478 10.408 24.6463 10.391 24.5955C10.3798 24.5504 10.3008 24.4546 10.4643 24.3531C11.0282 24.1952 11.7217 23.4396 11.7781 23.2761C11.7048 23.3832 10.5376 24.0317 10.3177 24.1162C10.5489 23.5637 11.9811 22.7574 12.0713 22.6615C11.7048 22.7179 10.4869 23.4565 10.2726 23.7836C10.0696 24.1106 9.83282 24.0204 9.60728 24.0091C9.38738 24.0035 9.40429 24.2403 9.39865 24.3813C9.39865 24.5222 9.28588 24.8098 9.3761 24.8605C9.52834 24.9902 9.9174 24.4658 10.0471 24.7478C10.1148 25.0635 9.3028 25.0466 9.31408 25.3003C9.27461 25.4357 10.064 25.4808 10.205 25.6217C9.95123 25.8078 9.33099 25.8642 9.15056 25.8755C9.03779 25.8868 8.93065 25.8755 8.87427 25.8755C8.77277 25.8586 8.63745 25.7627 8.51904 25.571C8.2935 25.165 8.67128 24.8831 8.68256 24.7816C8.69383 24.6745 8.63745 24.7309 8.63181 24.5617C8.62617 24.3925 8.81788 24.3643 8.86863 24.3249C8.92501 24.2854 8.85171 24.2403 8.86863 24.0711C8.97012 23.6934 9.57909 23.2648 9.42121 23.1408C9.28024 23.0675 8.9814 23.3945 8.86863 23.5411C8.44574 24.0824 7.95518 23.9133 7.79166 23.9189C7.41952 23.9414 7.48718 23.5355 7.74655 23.5637C8.0454 23.5016 8.02284 23.09 8.23711 23.1295C8.30477 23.434 7.9721 23.4734 8.12434 23.5411C8.3386 23.6257 8.36116 23.3438 8.42882 23.231C8.49085 23.1126 8.79533 22.8532 8.7615 22.7912C8.67692 22.763 8.45138 22.9209 8.35552 22.9998C8.11306 22.3908 8.72766 21.9285 8.75586 21.748C8.95885 21.4266 10.0866 21.0207 10.1035 20.5358L10.1317 20.5076C10.1317 20.5076 10.1542 20.4963 10.1881 20.5527C10.1937 20.5809 10.1993 20.6147 10.2106 20.6429C10.2106 20.6824 10.2106 20.7162 10.2106 20.7162V20.6711C10.2275 20.7444 10.2219 20.812 10.2275 20.7951V20.8684C10.2388 20.9135 10.2952 20.9361 10.3008 20.9361C10.3234 20.9361 10.3854 20.9135 10.4474 20.8459C10.4587 20.8346 10.5207 20.7726 10.5207 20.7557C10.6279 20.6767 10.6504 20.6654 10.7237 20.5583C10.9154 20.2764 10.5433 19.8648 10.6504 19.4813C10.7237 19.2276 10.9549 18.9288 10.9549 18.9288C11.0169 18.7822 10.9154 18.7878 10.9154 18.7878C10.7688 18.7596 10.6617 18.9175 10.6842 18.9006C10.4925 19.081 10.4362 19.1656 10.2952 19.408C10.2952 19.408 10.1768 19.5152 10.1429 19.3686C10.0753 19.1318 10.3459 18.6581 10.4305 18.6017C10.5884 18.4946 10.7519 18.4438 10.9493 18.3649C11.0508 18.3254 11.1974 18.1619 11.2989 18.1337C11.3496 18.1168 11.4003 18.1055 11.4511 18.1337C11.4511 18.1337 11.5244 18.1901 11.4906 18.3649C11.4906 18.3649 11.4173 18.5735 11.4398 18.6525C11.4567 18.7032 11.4511 18.754 11.5639 18.754C11.8402 18.754 12.4604 18.6919 12.6408 18.5961C12.6803 18.5792 12.7198 18.5171 12.7592 18.4833C12.8156 18.4269 12.8043 18.3367 12.7592 18.3311L12.6408 18.2916C12.731 18.2803 12.1164 18.2747 12.2179 18.2578C12.1108 18.2747 12.3645 17.9758 12.3307 17.8292C12.3194 17.7616 12.201 17.7334 12.1785 17.677C12.1672 17.6432 12.0995 17.5924 12.1785 17.5586L12.2687 17.5191C12.2969 17.4966 12.3307 17.4627 12.3702 17.4402C12.5619 17.35 12.9115 17.3951 13.0637 17.4402C13.0806 17.4458 13.3287 17.5191 13.4133 17.7503C13.4359 17.818 13.4528 17.8856 13.4866 17.942C13.605 18.0999 13.9433 18.1563 14.1407 17.9702C14.1802 17.9307 14.2309 17.8405 14.2591 17.7898C14.4565 17.333 14.1632 17.0286 13.7911 16.8989C13.6445 16.8481 13.402 16.8312 13.216 16.7805C13.0863 16.741 13.1652 16.6339 13.199 16.6L13.2554 16.5493C13.3287 16.4422 13.5599 16.3463 13.6445 16.3181C13.8475 16.2392 14.0505 16.1659 14.338 16.2843C14.3831 16.3012 14.4959 16.3858 14.5241 16.397C14.744 16.4534 14.8286 16.4647 15.0259 16.3632C15.1049 16.3237 15.0936 16.3125 15.1049 16.2899C15.1782 16.0813 15.0316 15.946 15.0372 15.9685C14.9921 15.6922 15.7872 16.0305 15.9112 15.8557C16.0296 15.6979 15.9507 15.3934 16.1029 15.2806C16.1198 15.2693 16.21 15.2073 16.2213 15.2073C16.3679 15.1735 16.4976 15.2355 16.616 15.2806L16.7401 15.3426C16.9882 15.4441 17.2081 15.5005 17.3434 15.7035C17.428 15.8388 17.4111 16.0305 17.4956 16.1659C17.5295 16.2223 17.614 16.2617 17.6535 16.3181C17.6873 16.3632 17.755 16.3858 17.8058 16.414C17.8791 16.4591 17.9073 16.476 17.9975 16.5042C18.0651 16.5324 18.161 16.6339 18.2287 16.6621C18.4655 16.7579 18.7474 16.7466 19.0011 16.741C19.1534 16.7354 19.2436 16.8256 19.3846 16.7805C19.4579 16.7579 19.4353 16.6282 19.3902 16.5718C19.3 16.4534 19.2267 16.4816 19.0744 16.397C19.0124 16.3576 18.9391 16.2392 18.8827 16.2053C18.7079 16.0926 18.4542 16.0756 18.3471 15.8952C18.3301 15.867 18.3132 15.8163 18.3076 15.7824L18.2625 15.6979C18.0482 15.2637 17.9806 15.01 18.1892 14.9254C18.3189 14.8803 18.5952 14.9028 18.7305 14.8464C18.7587 14.8295 18.8207 14.7449 18.8433 14.728C19.1477 14.5814 19.7229 14.4123 20.0386 14.5758C20.1345 14.6209 20.0386 14.8634 20.0725 14.9592C20.095 14.9987 20.1627 15.072 20.2416 15.0945C20.9013 15.275 21.5667 15.2411 22.0516 15.4723C22.3392 15.6076 22.5647 15.8219 22.8241 16.0475C23.0496 16.2448 22.7846 16.4703 23.0102 16.538C22.8523 16.5606 22.717 16.5775 22.6944 16.4929C22.6888 16.4703 22.638 16.4027 22.6155 16.3801C22.4407 16.2166 22.2433 15.9629 22.0009 15.8783C21.8768 15.8332 21.8204 15.8727 21.6907 15.8388L21.5329 15.7881C21.3637 15.743 21.3524 15.7599 21.1889 15.7204C21.1156 15.7035 20.9521 15.6189 20.8788 15.6076C20.5517 15.5569 20.3657 15.6922 20.0668 15.6076C19.9259 15.5682 19.7511 15.3483 19.6383 15.2919C19.4973 15.2129 19.3733 15.1848 19.2154 15.134C19.1534 15.1171 19.1195 15.1171 19.0744 15.1396C18.9899 15.1904 19.0181 15.2637 19.0632 15.3314C19.0857 15.3652 19.1083 15.4216 19.1421 15.4441C19.2492 15.5231 19.4691 15.5231 19.5255 15.6358C19.6947 15.9742 19.4466 16.0869 19.4071 16.1884C19.3902 16.2504 19.3394 16.2956 19.4071 16.3801C19.4409 16.4252 19.5199 16.476 19.565 16.4929C19.7229 16.5606 19.8469 16.5324 19.9879 16.6113C20.0894 16.6677 20.2022 16.8538 20.3318 16.882C20.642 16.9496 20.7153 16.7184 20.8675 16.6846C21.093 16.6339 21.2284 16.7523 21.4877 16.6846C21.5723 16.6621 21.6174 16.5606 21.6795 16.5324C21.8261 16.4534 21.9727 16.4422 22.0685 16.4929C22.0685 16.4929 22.17 16.538 22.029 16.6113C21.9501 16.6564 21.8824 16.6564 21.7979 16.6959C21.7415 16.7241 21.6907 16.803 21.6851 16.8143C21.6569 16.8707 21.64 16.9496 21.64 16.9553C21.6625 17.0004 21.6964 17.0229 21.7189 17.0342C21.9896 17.1244 22.2602 16.9553 22.4914 16.9158C22.6606 16.8876 23.1398 16.9158 23.2752 17.0229C23.2752 17.0229 23.4049 17.0511 23.3203 17.2823C23.2695 17.4233 23.0496 17.5248 22.965 17.6375C22.9143 17.7052 22.8636 17.8292 22.8128 17.8969C22.7339 18.004 22.717 17.9984 22.6324 18.0943L22.576 18.1732C22.5422 18.2747 22.1475 18.6074 22.0742 18.7145C22.029 18.7822 22.0065 18.8498 21.9614 18.9231C21.8937 19.0246 21.8373 19.0415 21.8035 19.1036C21.6907 19.2671 21.4708 19.5941 21.2848 19.6787C21.2058 19.7125 21.0874 19.6787 20.9746 19.6505C20.8957 19.6279 20.8111 19.487 20.7491 19.4588C20.4784 19.3347 20.1796 19.3686 19.9428 19.2276C19.8244 19.1543 19.7172 18.9513 19.6327 18.8442C19.5763 18.7709 19.5255 18.6412 19.4409 18.613C19.3 18.5679 18.9673 18.613 18.9053 18.7314C18.7756 18.9739 19.1083 19.5941 19.1365 19.8535C19.159 20.0734 19.0575 20.1692 19.1365 20.3497C19.1759 20.4455 19.3169 20.4681 19.3676 20.5414C19.5763 20.8684 19.3958 21.3364 19.4466 21.7762C19.4635 21.9116 19.5481 22.0807 19.5199 22.2781C19.4861 22.5826 19.0914 22.8476 19.2492 23.3156C19.2549 23.3381 19.3282 23.3889 19.3338 23.3945C19.3958 23.4227 19.4917 23.4114 19.5537 23.3945C19.6834 23.3494 19.8075 23.0957 19.9428 23.0111C19.9541 22.9942 19.9992 22.9716 20.0217 22.9716C20.0386 22.9434 20.0725 22.9434 20.095 22.9321C20.1514 22.887 20.174 22.887 20.2078 22.8137C20.2642 22.6897 20.2416 22.5656 20.2867 22.3852C20.3262 22.2386 20.4615 21.9736 20.4784 21.8044C20.5235 21.3308 20.1852 20.4117 20.4277 20.2595C20.5235 20.2031 20.6138 20.0903 20.7773 20.0678C20.8506 20.0508 21.0818 20.1241 21.1833 20.1185C21.0592 20.4117 21.5216 21.1842 21.4821 21.6071C21.3919 22.6446 20.7153 23.2141 20.1288 23.7667C20.0612 23.8343 20.1176 23.9076 20.1683 23.9584C20.2867 24.0655 20.5687 24.0204 20.7096 23.9978C20.9182 23.9527 21.0141 23.8569 21.172 23.8061C21.2284 23.7836 21.3017 23.8174 21.3637 23.8061C21.5216 23.761 21.6569 23.5467 21.7471 23.4171C21.7471 23.4171 21.9332 23.2141 21.9727 23.4847V23.5016C21.9727 23.7497 21.9332 24.026 21.9727 24.2685C22.0178 24.5561 22.5478 25.4244 22.8184 25.4639C23.4612 25.5597 22.8015 24.7478 22.779 24.6914C22.6718 24.4489 22.5703 24.0091 22.5873 23.6877C22.5873 23.5693 22.6888 23.3325 22.7 23.2197C22.7057 23.1633 22.6775 23.0393 22.7 22.9942C22.7508 22.8927 23.0891 22.8588 23.1624 22.7235C23.1793 22.684 23.1511 22.6164 23.1624 22.5713C23.1793 22.4811 23.247 22.3063 23.3203 22.2273C23.3654 22.1709 23.4331 22.1371 23.512 22.2273C23.5797 22.3006 23.5966 22.4754 23.7037 22.5995L23.7996 22.701C23.9123 22.7743 24.0984 22.6784 24.0477 22.6897C24.1661 22.6559 24.1548 22.5374 24.2055 22.4923C24.2112 22.4867 24.2788 22.4585 24.2788 22.4585C24.5551 22.1709 23.9405 21.9116 23.9292 21.6466C23.9292 21.3533 23.9969 21.0094 23.8954 20.6824C23.8729 20.6034 23.7206 20.485 23.7037 20.4117C23.6642 20.2256 23.7601 20.0283 23.7826 19.9099C23.8277 19.6618 23.7432 19.284 23.8221 19.1769C23.8672 19.1148 23.9405 19.0754 24.0928 19.0979C24.1886 19.1148 24.2563 19.2784 24.3239 19.3291C24.5777 19.5321 24.8709 19.6449 25.2881 19.5998C25.3389 19.5998 25.384 19.5208 25.3953 19.4983C25.4235 19.4193 25.4178 19.3235 25.3671 19.2558C25.2148 19.0528 24.6284 18.8949 24.5946 18.7934C24.572 18.7201 24.4762 18.6186 24.5833 18.5679C24.5269 18.6017 24.9442 18.5566 25.0964 18.5228C25.2938 18.4777 25.3051 18.286 25.446 18.2183C25.6377 18.1168 25.9197 18.207 26.0268 18.0266C26.0888 17.9082 26.0381 17.7447 26.1001 17.6375C26.1734 17.5022 26.4046 17.474 26.523 17.3669C26.5568 17.333 26.5399 17.2146 26.5343 17.1808M11.0564 26.2138C10.9831 26.1292 11.0451 25.9657 11.1861 25.898C11.4455 25.774 11.5469 25.9149 11.6033 25.9826C11.8514 26.3717 12.1785 26.8735 12.4153 27.0709C12.1954 27.0934 11.3665 26.8397 11.0564 26.2138ZM13.1765 30.11C13.0412 30.11 12.1841 29.3883 12.3138 28.9372C12.5675 29.1233 13.137 29.5236 13.2103 29.518C13.2836 29.5631 13.3457 30.0593 13.1765 30.11ZM14.1745 30.1157C14.0618 30.0198 13.2329 29.1402 13.4415 28.7286C13.6671 28.9598 14.3042 29.5405 14.5298 29.5969C14.5918 29.7661 14.5861 30.2228 14.1745 30.11M14.2647 26.7607C14.4113 26.9806 14.6087 27.1047 14.5974 27.5783C14.5805 27.6911 14.62 27.7137 14.7158 27.708C14.8004 27.6855 14.7553 27.1442 15.0203 27.178C15.2458 27.2118 15.0936 27.5219 15.2007 27.8715C15.2402 27.9956 15.4939 28.441 15.4263 29.2079C15.4206 29.4052 15.0429 29.6646 14.8286 29.5124C14.6538 29.4052 14.6538 29.2755 14.5523 28.4636C14.5072 27.9843 13.9264 27.8208 13.6783 27.6009C13.4302 27.4204 13.5712 27.3302 13.5261 26.9976C13.3851 26.5183 12.8269 26.2927 13.013 25.977C13.0694 25.898 13.1257 25.8247 13.3062 25.8924C13.3175 26.1292 13.8813 26.3153 14.2647 26.7664M10.2895 25.244C10.3459 25.2214 10.594 25.103 10.6617 25.0804C10.9267 24.9902 11.062 25.1255 11.3045 24.9902C11.3609 24.9564 11.4229 24.8605 11.4793 24.8211C11.5244 24.7816 11.609 24.7872 11.6597 24.7478C11.795 24.6575 12.0431 24.37 12.2179 24.3418C12.3194 24.3249 12.3138 24.3474 12.3645 24.3531C12.3645 24.3643 12.4378 24.3362 12.4209 24.4884C12.3758 24.776 13.0468 24.4884 13.4866 24.5899C13.7855 24.6632 14.0787 24.7647 13.9997 24.9564C14.011 24.9338 13.9095 25.0184 13.887 25.0297C13.6783 25.1819 13.5204 25.0128 13.4133 25.0015C13.2329 24.9789 13.1032 25.0353 12.9228 25.0128L12.7029 24.9395C12.5619 24.9338 12.3589 25.0071 12.2574 25.0128C12.0544 25.0297 11.9586 24.9564 11.7725 24.9733C11.6823 24.9846 11.5413 25.0974 11.4736 25.1199C11.4116 25.1425 11.344 25.165 11.2876 25.1819C11.2481 25.1932 11.1466 25.2496 11.1015 25.2665C10.9154 25.3567 10.8083 25.3567 10.5828 25.4188L10.4531 25.4526C10.1711 25.4921 10.1993 25.2947 10.2895 25.2496M9.60164 26.3491C9.90613 26.2758 9.99634 26.3548 10.1429 26.6987C10.2501 26.9017 10.4756 27.1723 10.5658 27.302C10.2162 27.3415 9.65803 26.8622 9.50579 26.6029C9.40429 26.4732 9.55653 26.3717 9.60728 26.3435M5.74486 24.9C6.1452 24.7872 6.49479 24.6745 6.64703 24.5899C6.70342 24.5899 6.75417 24.5899 6.80491 24.5842C6.82747 24.6914 6.86694 24.7985 6.92896 24.9056C6.94588 24.9282 6.95715 24.9508 6.96843 24.9677C6.72597 24.9677 6.24106 24.9451 5.73922 24.9056M6.57373 25.5992C6.77672 25.4751 6.97407 25.3398 7.16014 25.2045C7.24472 25.306 7.33494 25.3962 7.44207 25.4864C7.33494 25.5146 6.99662 25.5597 6.57373 25.5992Z" fill="#7C0019"/>
<path d="M10.2894 25.2439C10.2668 25.2552 10.2668 25.2552 10.2894 25.2439V25.2439Z" fill="#D7C9B1"/>
<path d="M7.08674 6.11231C6.94014 5.99953 6.79918 5.8924 6.4947 5.57664C6.4947 5.57664 5.21474 4.16136 5.02303 3.9471C5.07378 3.88507 6.50597 2.13148 6.50597 2.13148L6.59055 2.04126H5.86881L4.25618 4.03731V2.04126H3.52881V6.25327H4.25618V4.0937L5.94212 5.9657C6.08308 6.15178 6.33118 6.24763 6.68641 6.24763H7.28973L7.14313 6.14614L7.08674 6.10103V6.11231Z" fill="#D7C9B1"/>
<path d="M10.543 1.92285C9.90024 1.92285 9.34766 2.13712 8.90221 2.56565C8.45677 2.99418 8.22559 3.5242 8.22559 4.13317C8.22559 4.77597 8.45113 5.31727 8.89658 5.74016C9.32511 6.15178 9.86077 6.3604 10.4867 6.3604C11.1125 6.3604 11.6482 6.14614 12.0936 5.71761C12.5391 5.28908 12.7646 4.74777 12.7646 4.10498C12.7646 3.51857 12.556 3.00546 12.1444 2.5882C11.7159 2.15403 11.1802 1.92849 10.5487 1.92849M10.5092 5.80782C10.0694 5.80782 9.69725 5.62175 9.40968 5.26088C9.13903 4.92257 9.00371 4.52787 9.00371 4.07115C9.00371 3.61442 9.13903 3.21408 9.41532 2.91524C9.68597 2.6164 10.0525 2.46415 10.4979 2.46415C10.9434 2.46415 11.3042 2.64459 11.5862 3.00546C11.8455 3.33813 11.9752 3.74411 11.9752 4.21775C11.9752 4.69139 11.8455 5.05789 11.5805 5.3511C11.3099 5.64994 10.949 5.80219 10.5092 5.80219V5.80782Z" fill="#D7C9B1"/>
<path d="M20.7374 4.24596C20.822 4.24596 22.0907 4.24596 22.0907 4.24596V3.69338C22.0907 3.69338 20.822 3.69338 20.7374 3.69338V2.5995C21.0363 2.59386 22.3951 2.5995 22.4121 2.5995H22.4572V2.03564H20.0044V2.08075V6.25893H22.632L22.7222 5.66688C22.7222 5.66688 20.8276 5.66688 20.743 5.66688V4.24596H20.7374Z" fill="#D7C9B1"/>
<path d="M26.6301 2.02979H25.9534L24.228 6.25871H24.8821C24.8821 6.25871 25.4403 4.76449 25.4629 4.70811H26.9853C27.0078 4.76449 27.5773 6.25871 27.5773 6.25871H28.3893L26.6639 2.02979H26.6357M26.7485 4.14989H25.6659C25.7053 4.04275 26.1395 2.94887 26.2128 2.7628C26.2805 2.94887 26.709 4.04275 26.7485 4.14989Z" fill="#D7C9B1"/>
<path d="M17.4617 5.30601C17.4617 5.30601 16.7625 4.43204 16.5821 4.20649C16.7287 4.15575 16.9824 4.04297 17.1741 3.83999C17.3828 3.62008 17.4899 3.36635 17.4899 3.09006C17.4899 2.77994 17.3715 2.5262 17.1403 2.33449C16.8979 2.13714 16.5652 2.03564 16.1423 2.03564H14.7383V6.25893H15.4938V6.19127C15.4713 6.0503 15.4713 5.8304 15.4713 5.32857V2.55439C16.1592 2.54875 16.4355 2.63333 16.5426 2.71227C16.6892 2.81377 16.7569 2.96037 16.7569 3.16336C16.7569 3.63136 16.4129 3.90765 15.7138 4.01478L15.6348 4.02606L17.1121 5.92062C17.2869 6.14052 17.5463 6.25329 17.879 6.25329H18.4823L18.3582 6.16871C18.0594 5.96573 17.7267 5.64433 17.4561 5.30038L17.4617 5.30601Z" fill="#D7C9B1"/>
<path d="M14.8056 9.01047H15.4541V8.74545C15.4541 8.74545 14.8508 8.74545 14.8056 8.74545V8.22671C14.9466 8.22671 15.595 8.22671 15.6007 8.22671H15.6232V7.95605H14.4561V7.97861V9.96902H15.7078L15.7529 9.6871C15.7529 9.6871 14.8508 9.6871 14.8056 9.6871V9.01047Z" fill="#D7C9B1"/>
<path d="M5.18623 7.95605H4.94377V9.19654C4.94377 9.56868 4.8592 9.76603 4.40811 9.76603H4.35173C4.04724 9.76603 3.895 9.57432 3.895 9.19654V7.95605H3.54541V9.19654C3.54541 9.34878 3.54541 9.45028 3.56233 9.5123C3.58488 9.62507 3.62999 9.72093 3.70329 9.79987C3.83298 9.94083 4.02469 10.0141 4.26151 10.0141H4.48705C4.72387 10.0141 4.91558 9.94083 5.04527 9.79987C5.11857 9.72093 5.16368 9.62507 5.18623 9.5123C5.19751 9.45028 5.20315 9.34878 5.20315 9.19654V7.95605H5.18059H5.18623Z" fill="#D7C9B1"/>
<path d="M8.2202 7.95605V7.97861C8.2202 7.97861 8.2202 9.31495 8.2202 9.43336C8.1469 9.3375 7.05302 7.95605 7.05302 7.95605H6.74854V9.97466H7.01355C7.01355 9.97466 7.01355 8.58757 7.01355 8.46916C7.08685 8.56502 8.19765 9.97466 8.19765 9.97466H8.49085V7.96169H8.22584L8.2202 7.95605Z" fill="#D7C9B1"/>
<path d="M9.96777 7.95605V9.97466H10.3174V7.95605H10.2948H9.96777Z" fill="#D7C9B1"/>
<path d="M22.5815 7.95605V8.4015V9.52921V9.97466H22.9255V9.52921V8.4015V7.97861V7.95605H22.9086H22.5815Z" fill="#D7C9B1"/>
<path d="M13.0012 7.95605C13.0012 7.95605 12.4599 9.42772 12.4261 9.53485C12.3866 9.42772 11.8566 7.95605 11.8566 7.95605H11.4619L12.2118 9.97466H12.5276L13.3057 7.95605H13.0012Z" fill="#D7C9B1"/>
<path d="M20.8727 8.95405L20.6021 8.81872L20.3709 8.70595C20.2018 8.61573 20.1172 8.51988 20.1172 8.41838C20.1172 8.3338 20.1567 8.27178 20.2356 8.22667C20.2976 8.19284 20.3822 8.17592 20.4893 8.17592C20.6641 8.17592 20.8446 8.23231 20.9404 8.30561L20.9742 8.3338V7.97857H20.9573C20.8164 7.92783 20.6641 7.90527 20.5006 7.90527C20.292 7.90527 20.1172 7.94474 19.9762 8.02932C19.8071 8.12518 19.7225 8.26614 19.7225 8.45221C19.7225 8.63829 19.8183 8.79617 19.9988 8.91458L20.1003 8.96532L20.5006 9.16267C20.6698 9.25289 20.7543 9.35438 20.7543 9.47279C20.7543 9.56301 20.7092 9.63068 20.6134 9.68706C20.5288 9.73781 20.4386 9.76036 20.3484 9.76036C20.1341 9.76036 19.9255 9.70398 19.745 9.59684L19.7056 9.57429L19.7563 9.92388H19.7676C19.9311 9.99154 20.1172 10.0197 20.3145 10.0197C20.5626 10.0197 20.7713 9.95771 20.9235 9.83366C21.0701 9.72089 21.1378 9.56301 21.1378 9.37694C21.1378 9.21342 21.0419 9.07246 20.8615 8.95405H20.8727Z" fill="#D7C9B1"/>
<path d="M24.2505 7.95044V8.21545C24.2505 8.21545 24.7692 8.21545 24.8143 8.21545V9.96905H25.1639C25.1639 9.96905 25.1639 8.26056 25.1639 8.21545H25.7391V7.95044H24.2561H24.2505Z" fill="#D7C9B1"/>
<path d="M28.0057 7.95044C28.0057 7.95044 27.4926 8.74548 27.4587 8.80186C27.4249 8.74548 26.9174 7.95044 26.9174 7.95044H26.5171C26.5171 7.95044 27.2332 9.07815 27.2445 9.08943C27.2445 9.10071 27.2445 9.96905 27.2445 9.96905H27.5941C27.5941 9.96905 27.5941 9.10635 27.5941 9.08943C27.5997 9.07815 28.3496 7.95044 28.3496 7.95044H28.0113H28.0057Z" fill="#D7C9B1"/>
<path d="M18.3581 9.5123C18.3581 9.5123 18.0255 9.09505 17.9409 8.98791C18.0085 8.96536 18.1326 8.90897 18.2228 8.81312C18.3243 8.70598 18.375 8.58757 18.375 8.45789C18.375 8.31128 18.3187 8.18724 18.2115 8.09702C18.0931 8.00116 17.9352 7.95605 17.7379 7.95605H17.0669V9.96902H17.4221V9.93519C17.4108 9.86753 17.4108 9.77167 17.4108 9.52358V8.20415C17.7379 8.20415 17.8676 8.24362 17.9183 8.27745C17.986 8.3282 18.0198 8.39586 18.0198 8.49172C18.0198 8.71162 17.8563 8.84695 17.5236 8.8977H17.4841L18.189 9.8055C18.2735 9.91264 18.392 9.96339 18.5498 9.96339H18.8374L18.7754 9.92392C18.6344 9.82806 18.4765 9.67582 18.3468 9.5123H18.3581Z" fill="#D7C9B1"/>
<path d="M54.5237 19.2104L53.9373 18.7988L53.7174 18.6296C53.131 18.1842 52.5728 17.7613 51.3661 16.4982C51.3661 16.4982 46.2745 10.8653 45.502 10.0082C45.6994 9.76578 51.4225 2.77395 51.4225 2.76832L51.7439 2.41309H48.8682L47.2161 4.4768L42.4403 10.3691V6.09507V2.41309H39.5308V15.5058V19.2104H42.4403V10.6116L49.1502 18.077C49.7027 18.827 50.7008 19.2104 52.1104 19.2104H54.5181H54.5237Z" fill="#7C0019"/>
<path d="M54.332 10.7188C54.332 13.2787 55.2286 15.4326 56.9934 17.1129C58.7076 18.7594 60.8389 19.5939 63.3255 19.5939C65.8122 19.5939 67.9605 18.7312 69.7253 17.0227C71.4902 15.3142 72.3867 13.1547 72.3867 10.5891C72.3867 8.24346 71.5579 6.21358 69.917 4.5502C68.2198 2.81916 66.0772 1.93391 63.5624 1.91699C61.0025 1.90008 58.7978 2.76278 57.016 4.47126C55.2342 6.18539 54.332 8.28857 54.332 10.7188ZM63.3988 4.11039C65.1524 4.11039 66.6072 4.83213 67.7293 6.26433C68.7611 7.58939 69.2855 9.21894 69.2855 11.0966C69.2855 12.9742 68.7555 14.4459 67.7123 15.6187C66.6297 16.8028 65.1919 17.4061 63.4496 17.4061C61.7073 17.4061 60.2187 16.6731 59.0684 15.2296C57.9858 13.8877 57.4389 12.2976 57.4389 10.4989C57.4389 8.70019 57.9858 7.0932 59.0741 5.90346C60.151 4.71372 61.6114 4.11603 63.4045 4.11603L63.3988 4.11039Z" fill="#7C0019"/>
<path d="M77.9574 28.4971C78.1435 28.4971 80.8613 28.4971 80.8613 28.4971V27.3187H77.9574V24.9786C78.5946 24.9674 81.5097 24.9786 81.5436 24.9786H81.6451V23.7664H76.3843V23.8679L76.3956 32.8275H82.0172L82.2089 31.5645C82.2089 31.5645 78.1492 31.5645 77.9631 31.5645V28.514L77.9574 28.4971Z" fill="#7C0019"/>
<path d="M103.884 16.8253C103.884 16.8253 96.3505 16.8253 95.9953 16.8309V11.1642C96.3449 11.1642 101.391 11.1529 101.391 11.1529V8.97078C101.391 8.97078 96.3449 8.97078 95.9953 8.97078V4.6178C97.1794 4.58961 102.598 4.6178 102.654 4.6178H102.84V2.34546H102.654L93.0688 2.36237L93.0858 19.1879H103.528L103.884 16.8253Z" fill="#7C0019"/>
<path d="M110.898 13.0251H116.96C117.05 13.2563 119.317 19.205 119.317 19.205H122.542L115.669 2.36255H112.849L105.981 19.205H108.581C108.581 19.205 110.802 13.2563 110.893 13.0251H110.898ZM111.71 10.7978C111.879 10.3637 113.599 5.99942 113.887 5.26641C114.174 6.00506 115.86 10.3693 116.024 10.7978H111.705H111.71Z" fill="#7C0019"/>
<path d="M79.1304 18.9454C79.0571 18.3815 79.0514 17.5132 79.0514 15.5171V4.46554C81.803 4.43734 82.8913 4.78694 83.3198 5.08578C83.895 5.49176 84.1769 6.08381 84.1712 6.89012C84.16 8.75085 82.8011 9.86165 80.0043 10.2789L79.6886 10.324L85.5865 17.8797C86.2913 18.7593 87.3119 19.2048 88.6313 19.2048H91.0447L90.5428 18.8608C89.3418 18.0432 88.0337 16.7858 86.9511 15.3987C86.9511 15.3987 84.1656 11.9141 83.4551 11.0288C84.0359 10.8089 85.0565 10.3466 85.8121 9.55153C86.6578 8.66627 87.0807 7.66824 87.0807 6.56872C87.0807 5.33388 86.6127 4.31893 85.688 3.54645C84.7238 2.75141 83.3875 2.35107 81.7185 2.35107H76.125V15.5002V19.1935H79.1247V18.9341L79.1304 18.9454Z" fill="#7C0019"/>
<path d="M90.5089 30.7922C90.5089 30.7922 89.009 28.9145 88.6313 28.4409C88.9414 28.3281 89.4883 28.0857 89.8999 27.6515C90.351 27.1779 90.5822 26.6422 90.5822 26.0502C90.5822 25.3848 90.3341 24.8379 89.8379 24.4262C89.3192 23.9977 88.6031 23.7834 87.7065 23.7834H84.7012V32.8333H86.3138V32.6924C86.2743 32.3935 86.2687 31.9255 86.2687 30.8542V24.9112C87.746 24.8942 88.3324 25.086 88.5636 25.2438C88.8737 25.4637 89.0203 25.7795 89.0203 26.2137C89.0203 27.2117 88.2817 27.8094 86.7818 28.0349L86.6126 28.0575L89.7815 32.1172C90.1593 32.5909 90.7062 32.8277 91.4223 32.8277H92.7136L92.4429 32.6416C91.8001 32.2018 91.0953 31.5252 90.5145 30.7809L90.5089 30.7922Z" fill="#7C0019"/>
<path d="M45.8402 23.7664L45.8515 29.3486C45.8515 31.0176 45.4624 31.9141 43.4156 31.9141H43.1788C41.8199 31.9141 41.132 31.0514 41.132 29.3429V23.7607H39.5645V29.3486C39.5645 30.0308 39.587 30.4932 39.6434 30.7695C39.7336 31.277 39.9479 31.7168 40.2749 32.072C40.867 32.7204 41.7127 33.0475 42.7897 33.0475H43.8047C44.8816 33.0475 45.7274 32.7204 46.3251 32.072C46.6521 31.7224 46.8664 31.2826 46.9566 30.7695C47.013 30.4932 47.0412 30.0252 47.0412 29.3486V23.8622V23.7607H45.8458L45.8402 23.7664Z" fill="#7C0019"/>
<path d="M57.1568 23.7664V23.8679C57.1568 23.8679 57.1399 29.8898 57.1399 30.4199C56.8072 29.997 51.9016 23.7664 51.9016 23.7664H50.5371V32.8388H51.7268C51.7268 32.8388 51.7268 26.5913 51.7268 26.0556C52.0595 26.4841 57.044 32.8332 57.044 32.8332H58.3465L58.3578 23.7664H57.1568Z" fill="#7C0019"/>
<path d="M61.9214 23.7664L61.9327 32.8388H63.4945L63.5002 23.7664H63.3987H61.9214Z" fill="#7C0019"/>
<path d="M102.514 23.7664L102.525 32.8388H104.087L104.092 23.7664H103.991H102.514Z" fill="#7C0019"/>
<path d="M72.8151 23.7664C72.8151 23.7664 70.3961 30.3917 70.2157 30.8766C70.0409 30.3917 67.667 23.7664 67.667 23.7664H65.8853L69.2684 32.8445H70.6893L74.1909 23.7664H72.8151Z" fill="#7C0019"/>
<path d="M98.4483 28.2378L97.4333 27.7359L96.1928 27.127C95.4316 26.7266 95.0426 26.2925 95.0426 25.8301C95.0426 25.4467 95.2174 25.1591 95.5726 24.9618C95.8489 24.8039 96.2379 24.7306 96.7229 24.7475C97.5123 24.77 98.3242 25.0012 98.7471 25.3339L98.9106 25.458V23.851L98.843 23.8284C98.2058 23.6254 97.5179 23.5239 96.8018 23.5239C95.8602 23.5239 95.0651 23.71 94.4449 24.0765C93.695 24.505 93.3172 25.1422 93.3172 25.9654C93.3172 26.7887 93.7401 27.5048 94.5689 28.0404C94.5802 28.0461 95.5331 28.5141 95.5331 28.5141L96.83 29.1512C97.5912 29.5516 97.9803 30.0196 97.9803 30.5439C97.9803 30.9386 97.7716 31.2544 97.3544 31.5081C96.9766 31.7337 96.5706 31.8465 96.1477 31.8408C95.1723 31.8408 94.2588 31.5927 93.4299 31.1134L93.2495 31.0119L93.4863 32.5964L93.5427 32.6189C94.2814 32.8896 95.1046 33.0306 95.9899 33.0306C97.1063 33.0306 98.0536 32.743 98.7358 32.2017C99.3786 31.6773 99.7057 30.9894 99.7057 30.1436C99.7057 29.4106 99.2828 28.7678 98.4539 28.2434L98.4483 28.2378Z" fill="#7C0019"/>
<path d="M106.624 23.7327V24.928C106.624 24.928 108.964 24.928 109.15 24.928C109.15 25.1254 109.15 32.8164 109.15 32.8164H110.729C110.729 32.8164 110.729 25.1198 110.729 24.928C110.915 24.928 113.311 24.928 113.311 24.928V23.7327H113.216H106.63H106.624Z" fill="#7C0019"/>
<path d="M118.465 27.5612C118.307 27.3131 116.035 23.7439 116.035 23.7439H114.23L114.332 23.8962C114.332 23.8962 117.461 28.8074 117.495 28.8581C117.495 28.9145 117.49 32.8107 117.49 32.8107H119.063C119.063 32.8107 119.063 28.9201 119.063 28.8581C119.097 28.8074 122.463 23.7383 122.463 23.7383H120.94C120.94 23.7383 118.623 27.3131 118.465 27.5556V27.5612Z" fill="#7C0019"/>
</g>
<defs>
<clipPath id="clip0_3337_1809">
<rect width="121.703" height="40" fill="white" transform="translate(0.844727)"/>
</clipPath>
</defs>
</svg>
