<svg fill="none" xmlns="http://www.w3.org/2000/svg" viewBox="0 0 139 37"><g clip-path="url(#clip0_90_2167)"><path d="M1.803 1.691h11.106c2.54 0 5.535 2.373 6.87 3.678l19.486 21.605V1.69h6.62v34.494H34.297c-2.065-.07-4.091-.494-6.453-2.815L8.39 11.726v24.46H1.803V1.69Zm138 34.73c-7.928 1.081-15.948 1.188-23.985.513-4.704-.416-9.313-1.384-13.536-3.589-5.333-2.763-7.031-8.974-6.96-14.604.059-5.197 1.604-10.745 6.241-13.766 3.04-1.995 6.286-2.65 9.736-3.275 9.416-1.66 18.85-1.285 28.037-.278v4.92c-10.834-2.105-22.277-1.581-26.166 3.396-2.429 3.097-2.775 6.178-2.775 8.771 0 4.675 1.599 11.766 11.097 13.144 6.197.91 12.331.22 18.31-.87v5.637h.001Zm-67.842-5.366h20.994v5.154c-10.324.397-20.243.57-30.672.137-8.85-.365-10.374-4.815-10.545-9.09V1.69H92.46v4.912H66.115v8.781h24.012v4.794H66.116c0 2.594.085 5.535.11 6.065.14 3.344 1.692 4.574 5.735 4.813" fill="#1414a0"/></g><defs><clipPath id="clip0_90_2167"><path fill="#fff" d="M.342.1h138v36.8h-138z"/></clipPath></defs></svg>
