<svg width="86" height="40" viewBox="0 0 86 40" fill="none" xmlns="http://www.w3.org/2000/svg">
<path fill-rule="evenodd" clip-rule="evenodd" d="M17.4504 6.56313L17.4505 6.54911C17.4639 4.36578 17.4774 2.1824 17.4901 -0.000976562H17.4881H11.6868V19.6125C11.5951 19.6285 11.5015 19.6444 11.4078 19.6603C9.71644 13.1079 8.02503 6.55346 6.33363 -0.000976562H0.978516V39.8137H6.48504V18.6682C6.55475 18.6612 6.62496 18.6538 6.69517 18.6463H6.69519H6.69522C6.76544 18.6388 6.83567 18.6314 6.9054 18.6244L6.90544 18.6245L6.90552 18.6248L6.90879 18.6376C8.70664 25.6558 10.5045 32.674 12.2984 39.6703H17.3546C17.3546 37.9784 17.3531 36.3031 17.3516 34.6393L17.3516 34.6362C17.3482 30.9271 17.3449 27.275 17.3586 23.6229C17.3802 17.9378 17.4153 12.2518 17.4504 6.56538L17.4504 6.56313ZM71.6151 9.42229C71.5007 9.3376 71.3618 9.25871 71.2231 9.17992C70.9246 9.01037 70.6268 8.84123 70.5751 8.61544C70.1299 6.678 69.7425 4.72807 69.348 2.74163C69.22 2.09718 69.0912 1.44889 68.9594 0.795937C69.4276 0.684372 69.7862 0.598707 70.3062 0.473196C70.8839 3.37787 71.4457 6.20086 72.0095 9.02584C71.9449 9.09046 71.8803 9.15557 71.8157 9.22068L71.8123 9.22407L71.8119 9.22445C71.7463 9.29056 71.6807 9.35668 71.6151 9.42229ZM69.2443 13.5641C69.2622 11.8927 70.5632 10.6017 72.2207 10.6037C73.8523 10.6057 75.2071 11.9405 75.229 13.5641C75.2509 15.2177 73.8005 16.6561 72.1589 16.6083C70.5253 16.5605 69.2264 15.2037 69.2443 13.5641ZM80.2036 32.6039C80.0787 33.0193 79.9647 33.4191 79.8542 33.8069L79.8542 33.807L79.8542 33.8071L79.8541 33.8073C79.6244 34.6135 79.4094 35.3679 79.1417 36.1022C78.4205 38.0785 76.7749 38.9153 74.697 38.3256C74.8088 37.961 74.9206 37.5982 75.0323 37.2355L75.1991 36.6939L75.1791 36.6852L75.1541 36.6738L75.1379 36.6663L75.1373 36.666C75.1169 36.6566 75.0965 36.6471 75.0756 36.6382C74.9033 36.8997 74.7302 37.1612 74.5519 37.4308L74.2328 37.9132C73.2925 36.2457 73.6631 34.5383 75.1473 33.5661C76.555 32.6454 78.1208 32.6278 79.7659 32.6094C79.9112 32.6078 80.0571 32.6061 80.2036 32.6039ZM72.9598 29.7132C72.9698 28.8027 72.7048 28.3824 71.627 28.7469V39.8437C72.5634 40.1943 72.9698 39.9811 72.9598 38.973C72.9279 35.8871 72.9299 32.7991 72.9598 29.7132ZM65.9272 29.3067C66.2398 29.3475 66.5358 29.384 66.8197 29.419C67.5202 29.5054 68.1472 29.5827 68.7682 29.6932C69.0491 29.743 69.4415 29.8964 69.5392 30.1136C69.8739 30.8527 70.2165 31.6277 70.3042 32.4166C70.3361 32.7075 69.6089 33.3988 69.332 33.347C68.545 33.2016 67.5589 32.9625 67.1226 32.3987C66.7132 31.8693 66.5085 31.1828 66.2794 30.4142L66.2794 30.4142C66.1739 30.0606 66.0633 29.6897 65.9253 29.3087L65.9272 29.3067ZM59.4603 16.843L59.4605 16.8434H59.4585L59.4603 16.843ZM59.4603 16.843C59.3269 16.4049 59.2293 16.0842 59.066 15.5444C60.33 15.2877 61.5809 15.0339 62.8259 14.7813L62.8381 14.7788L62.8433 14.7778L62.8492 14.7766C64.4751 14.4467 66.0908 14.119 67.7123 13.7893C68.0788 14.6957 67.9613 15.1878 66.9891 15.3651C65.2246 15.6884 63.4662 16.0412 61.655 16.4046L61.6548 16.4046L61.6544 16.4047L61.6514 16.4053L61.6493 16.4058C60.9292 16.5502 60.2008 16.6964 59.4603 16.843ZM73.1393 5.31459C72.892 6.57586 72.6448 7.83691 72.398 9.09756H72.396C73.3722 9.50995 73.8185 9.22905 73.9858 8.33852C74.4042 6.11918 74.8365 3.90382 75.2887 1.69244C75.4939 0.692342 75.0397 0.461243 74.0615 0.606676C73.7613 2.14152 73.4604 3.67637 73.1596 5.2109L73.1523 5.24798L73.1467 5.27683L73.1424 5.29836L73.1393 5.31459ZM67.7601 13.4167C65.8876 13.0478 64.0358 12.6823 62.1738 12.3147L59.086 11.7053C59.132 11.5103 59.1716 11.342 59.2074 11.1896L59.2075 11.1892L59.2108 11.1752L59.2115 11.1722L59.2118 11.171L59.2125 11.1677C59.2673 10.9344 59.3134 10.7382 59.3609 10.5399C59.4185 10.5288 59.4717 10.5136 59.5214 10.4994C59.6143 10.4728 59.6946 10.4499 59.7673 10.4642C60.5885 10.6222 61.4086 10.7855 62.2285 10.9488C63.8276 11.2672 65.4263 11.5855 67.033 11.8647C67.9773 12.0281 68.0052 12.5062 67.7601 13.4147V13.4167ZM71.126 22.7279C71.4324 21.17 71.7362 19.625 72.0394 18.0805C71.0572 17.7279 70.6309 17.9391 70.4695 18.8774C70.1845 20.5307 69.8611 22.1776 69.5376 23.8243L69.5375 23.8251L69.5373 23.8258L69.5372 23.8266L69.5371 23.8273L69.5369 23.8281L69.5368 23.8288L69.5367 23.8296L69.5365 23.8303L69.5364 23.8311L69.5362 23.8318L69.5361 23.8326L69.536 23.8333L69.5358 23.8341L69.5357 23.8348L69.5356 23.8356C69.3826 24.6139 69.2297 25.3921 69.0809 26.171C69.0708 26.2178 69.092 26.2702 69.1221 26.3446C69.1394 26.3874 69.1597 26.4374 69.1786 26.4977L69.4327 26.5315L69.434 26.5317L69.4346 26.5317L69.4364 26.532C69.6994 26.5669 69.9939 26.606 70.354 26.6551C70.6138 25.3323 70.8708 24.0256 71.126 22.7279ZM84.971 10.3407C84.993 10.3926 85.0154 10.4441 85.0375 10.4948C85.307 11.1146 85.5359 11.6409 84.6263 11.8269C82.0025 12.3648 79.3748 12.8768 76.4442 13.1458C76.5111 13.0158 76.5712 12.8561 76.6313 12.6966C76.7609 12.3525 76.8904 12.0087 77.0877 11.9624C79.0898 11.4986 81.1084 11.1018 83.1353 10.7034L83.1354 10.7034C83.7466 10.5833 84.3585 10.463 84.971 10.3407ZM73.936 25.8044C74.1173 26.7965 74.6054 26.7427 75.4521 26.3323H75.4541C75.3399 25.7527 75.2274 25.172 75.1147 24.5907L75.1136 24.5849L75.1125 24.5794L75.1115 24.5742L75.1105 24.5694C74.7173 22.5405 74.3227 20.505 73.8563 18.485C73.8112 18.2889 73.4863 18.158 73.0628 17.9873C72.8321 17.8944 72.5722 17.7896 72.3123 17.6562C72.501 18.5966 72.6831 19.4891 72.8585 20.3488C73.2515 22.2753 73.6109 24.037 73.936 25.8044ZM78.608 14.1357L78.6081 14.1357C80.625 14.5253 82.6417 14.9149 84.6502 15.3432C84.8148 15.3786 84.9386 15.6044 85.062 15.8297C85.1194 15.9343 85.1767 16.0389 85.2379 16.1242C85.151 16.1834 85.0606 16.2622 84.9702 16.341C84.775 16.5112 84.5798 16.6813 84.4191 16.6541C81.9926 16.2377 79.568 15.7875 77.1674 15.2416C76.9487 15.1913 76.794 14.8661 76.6387 14.5398C76.5662 14.3875 76.4936 14.2349 76.4143 14.11C76.475 14.0554 76.5356 14.0002 76.5962 13.945L76.5969 13.9444C76.6576 13.8892 76.7183 13.834 76.7789 13.7793V13.7813C77.388 13.9001 77.9973 14.0177 78.6066 14.1354L78.6067 14.1355L78.6069 14.1355L78.607 14.1355L78.6071 14.1355L78.6073 14.1356L78.6074 14.1356L78.6076 14.1356L78.6077 14.1357L78.6078 14.1357L78.608 14.1357ZM60.8789 6.85431C63.172 8.38235 65.3933 9.86258 67.6167 11.3428L67.6147 11.3408C67.6902 11.3024 67.765 11.2634 67.8395 11.2244L67.8402 11.2241C67.8893 11.1984 67.9382 11.1728 67.9872 11.1476C67.9513 10.9983 67.9313 10.8271 67.9114 10.6559C67.8682 10.2856 67.825 9.91544 67.6206 9.76695C66.1501 8.70284 64.6364 7.69557 63.0933 6.66871L63.093 6.66855L63.0926 6.66829L63.0912 6.66736C62.5925 6.33547 62.0906 6.00153 61.5862 5.66296C61.3901 5.9941 61.2399 6.24686 61.0962 6.48858L61.0958 6.4893L60.8789 6.85431ZM65.1651 2.41189L65.1707 2.40851L65.4232 2.25619C66.9752 4.55721 68.4873 6.79648 69.9994 9.03575C69.9689 9.08116 69.9381 9.12657 69.9072 9.17208C69.8555 9.24837 69.8035 9.32495 69.7524 9.40232C69.5907 9.34592 69.4081 9.3049 69.2256 9.26388C68.8277 9.17448 68.4299 9.08507 68.2482 8.83652C67.2127 7.42236 66.2434 5.96098 65.2502 4.46337L65.25 4.46311L65.2498 4.46278C64.9209 3.96684 64.5893 3.46692 64.2518 2.96343H64.2498C64.6302 2.73456 64.8873 2.5795 65.1587 2.41576L65.1616 2.41404L65.1625 2.41349L65.1651 2.41189ZM77.5867 4.30573C76.5324 5.89177 75.4937 7.4543 74.454 9.01588C74.4909 9.07667 74.5282 9.13795 74.5656 9.19923C74.6029 9.26047 74.6403 9.32171 74.6771 9.38245C74.8367 9.32989 75.0176 9.29266 75.1988 9.2554C75.5944 9.174 75.991 9.09241 76.1673 8.85052C77.1896 7.4495 78.1482 6.00233 79.1238 4.52942L79.1239 4.5292L79.1248 4.5278L79.1306 4.51916L79.1336 4.51464C79.4685 4.00897 79.8055 3.50028 80.1478 2.98938C79.919 2.82925 79.7242 2.69235 79.5249 2.5523L79.5243 2.55187L79.5227 2.55072L79.518 2.54746L79.5147 2.54508C79.3528 2.4313 79.1875 2.31516 78.9983 2.18253L77.5867 4.30573ZM76.7949 15.7994C79.0501 17.3015 81.3073 18.8056 83.6422 20.3616L83.3207 20.8214C83.1666 21.042 83.0202 21.2515 82.8453 21.5011C82.3131 21.1465 81.7839 20.7984 81.2586 20.4528L81.2573 20.452L81.2561 20.4511L81.2559 20.451L81.2557 20.4509C79.7902 19.4868 78.3549 18.5426 76.9682 17.5326C76.7269 17.3567 76.6517 16.9513 76.5765 16.5463C76.5418 16.3594 76.5071 16.1727 76.4562 16.0086C76.5117 15.9745 76.5666 15.9409 76.6216 15.9074L76.6255 15.905C76.6818 15.8706 76.7381 15.8362 76.7949 15.8014V15.7994ZM67.3478 22.1558L67.3571 22.142C68.2483 20.8123 69.1282 19.4995 70.0074 18.1861L69.8301 17.7836C69.6642 17.8399 69.4766 17.8805 69.2889 17.9211C68.8789 18.0098 68.4686 18.0986 68.2841 18.3514C67.2761 19.7359 66.336 21.169 65.3734 22.6362C65.0271 23.1641 64.6779 23.6964 64.3216 24.2325L64.6741 24.4456C64.9481 24.6113 65.1913 24.7584 65.485 24.9357C66.109 24.0042 66.7241 23.0864 67.3339 22.1766L67.3478 22.1558ZM74.4042 18.0825C75.4422 17.7358 76.0378 17.933 76.5439 18.7419C77.3351 20.0065 78.1717 21.2426 79.0362 22.52L79.0363 22.5201L79.0367 22.5207L79.037 22.5212C79.4021 23.0606 79.7721 23.6073 80.1458 24.1667C79.9676 24.2965 79.7998 24.4183 79.6247 24.5453L79.6232 24.5464C79.4385 24.6804 79.2458 24.8202 79.0242 24.9816L78.2387 23.8082C76.9454 21.8764 75.6879 19.9981 74.4042 18.0825ZM61.0715 20.7096L61.0726 20.7111L61.0741 20.7131C61.2694 20.9786 61.4438 21.2156 61.6539 21.4992H61.6559C62.1789 21.1497 62.699 20.8067 63.2155 20.4662L63.2158 20.466L63.2158 20.4659L63.2159 20.4659L63.216 20.4658L63.216 20.4658C64.657 19.5156 66.069 18.5846 67.4314 17.5845C67.6814 17.4 67.7656 16.988 67.8497 16.5763C67.8882 16.3877 67.9268 16.1991 67.9812 16.0325C67.9165 16.0036 67.8512 15.9752 67.786 15.9468C67.7207 15.9185 67.6555 15.8901 67.5908 15.8612L67.5815 15.8674L67.5753 15.8716L67.3795 16.0041L67.3014 16.0568C65.1764 17.4939 63.0485 18.9328 60.855 20.4154L61.0715 20.7096ZM82.7955 5.65299C83.0584 6.01359 83.2776 6.31442 83.6123 6.77661C82.1713 7.74921 80.7612 8.70177 79.3475 9.65681L79.3342 9.66574L79.3337 9.66609L76.757 11.4066C76.3147 10.3487 76.6076 9.76297 77.4284 9.24299C78.6945 8.44024 79.9347 7.59666 81.2018 6.73479L81.202 6.73467C81.7273 6.37739 82.2572 6.01696 82.7955 5.65499V5.65299ZM55.8665 -0.000955105C54.5795 5.35814 51.4397 18.6802 51.4397 18.6802C51.4397 18.6802 54.7269 32.1696 56.0816 37.7458C56.1316 37.9518 56.1832 38.159 56.2359 38.3712L56.236 38.3715C56.343 38.8018 56.455 39.2524 56.5697 39.754H50.2902C49.3479 35.3711 47.2481 25.6371 47.2481 25.6371C47.2481 25.6371 45.1483 35.2456 44.1701 39.7241H38.04C39.6238 33.3589 43.2258 18.6802 43.2258 18.6802C43.2258 18.6802 40.1956 5.43186 38.9066 -0.000955105H45.1543C45.8675 3.86198 47.4971 12.6995 47.4971 12.6995C47.4991 12.6995 49.2941 3.85202 50.0651 -0.000955105H55.8665ZM35.6513 39.7042C35.6513 38.3296 35.6752 33.7554 35.6752 33.7554H27.7402V22.2064H33.4061V16.176H27.7242V5.71874H35.3405V-0.000955105H21.5065V39.7042H35.6513Z" fill="url(#paint0_linear_3630_609)"/>
<defs>
<linearGradient id="paint0_linear_3630_609" x1="-15.8823" y1="-13.501" x2="78.6177" y2="39.999" gradientUnits="userSpaceOnUse">
<stop stop-color="#EDA297"/>
<stop offset="1" stop-color="#903FED"/>
</linearGradient>
</defs>
</svg>
