<svg width="1380" height="183" viewBox="0 0 1380 183" fill="none" xmlns="http://www.w3.org/2000/svg">
<path d="M190.074 181.801C191.574 179.301 192.974 176.801 194.574 174.301C199.174 167.101 203.674 159.801 208.574 152.801C218.574 138.801 230.374 126.201 243.774 115.301C252.174 108.401 261.174 102.301 270.274 96.201C276.374 92.101 282.974 88.801 289.374 85.201C289.874 84.901 290.574 84.601 290.974 84.401C293.774 82.901 294.074 82.301 293.574 80.101C292.674 75.601 291.774 71.101 290.574 66.601C288.874 60.101 286.874 53.701 285.174 47.201C284.074 43.301 286.074 39.001 289.874 36.701C293.174 34.701 297.874 35.101 300.874 37.301C303.574 39.301 304.574 42.301 305.374 45.301C307.474 52.601 309.674 59.801 311.274 67.201C313.074 75.701 314.374 84.401 315.774 93.001C318.374 109.401 318.674 125.801 318.074 142.301C317.674 153.201 316.174 164.101 315.174 174.901C315.074 176.001 314.774 177.201 314.674 178.301C314.574 179.301 314.374 180.301 314.274 181.301C314.274 181.601 314.474 181.901 314.674 182.001C314.874 182.101 315.174 182.001 315.374 181.901C316.074 181.301 317.074 179.801 317.874 178.501C321.574 171.901 324.974 163.901 328.374 156.301C330.674 151.201 332.474 145.901 334.274 140.601C335.974 135.701 337.474 130.801 338.774 125.901C340.674 118.701 342.474 111.601 343.874 104.301C346.174 92.401 347.774 80.401 347.874 68.301C347.874 66.201 349.074 65.601 350.774 65.401C357.074 64.101 364.074 62.901 370.674 62.501C384.274 61.501 397.874 61.501 411.374 63.001C418.974 63.801 426.574 64.701 434.074 66.301C442.574 68.101 450.974 70.501 459.374 73.001C465.374 74.801 471.374 77.001 477.274 79.201C480.674 80.501 483.874 82.301 487.174 83.901C492.074 86.301 496.974 88.801 501.974 91.201C502.374 91.401 502.874 91.301 503.874 91.401C503.074 90.201 502.674 89.301 501.974 88.701C490.774 78.401 479.574 68.101 466.874 59.701C456.674 52.801 446.274 46.201 435.674 40.001C427.974 35.501 419.674 31.901 411.574 28.101C404.774 25.001 397.874 22.101 390.874 19.401C385.174 17.201 379.374 15.301 373.574 13.601C367.474 11.801 361.274 10.201 355.074 8.70101C341.574 5.40101 327.874 3.40101 314.074 1.70101C297.674 -0.19899 281.274 -0.29899 264.974 0.40101C254.174 0.80101 243.374 2.10101 232.674 3.70101C222.474 5.20101 212.374 7.20101 202.374 9.70101C192.374 12.201 182.674 15.601 172.774 18.601C169.974 19.501 170.674 20.501 171.274 22.101C172.874 26.501 174.574 30.901 176.074 35.301C177.774 40.201 179.474 45.001 180.874 49.901C182.774 56.601 184.574 63.301 186.074 70.001C187.174 74.701 187.774 79.501 188.574 84.301C191.474 100.901 192.474 117.601 192.474 134.401C192.474 147.601 190.974 160.801 189.274 173.901C189.074 175.701 188.774 177.401 188.674 179.201C188.674 180.001 188.174 182.201 189.074 182.301C189.374 182.301 189.674 182.201 189.974 181.801H190.074Z" fill="#245866"/>
<path d="M2.17443 181.501C4.27443 181.001 6.47443 180.601 8.67443 180.001C17.5744 177.601 26.4744 175.401 35.2744 172.801C41.4744 171.001 47.5744 168.901 53.5744 166.501C61.1744 163.401 68.5744 159.901 75.8744 156.301C82.2744 153.101 88.6744 149.901 94.7744 146.101C102.774 141.201 110.574 135.901 118.274 130.501C130.074 122.201 140.874 112.801 151.074 102.701C157.074 96.7011 162.574 90.2011 168.274 83.9011C170.074 81.9011 171.774 79.9011 173.174 77.7011C174.374 76.1011 174.174 74.9011 173.874 73.6011C172.174 66.4011 170.374 59.2011 168.274 52.1011C166.374 45.8011 163.874 39.6011 161.574 33.4011C161.474 33.1011 161.374 32.8011 161.274 32.5011C159.274 26.6011 158.974 26.7011 153.674 29.5011C143.774 34.6011 133.574 39.5011 124.074 45.2011C114.074 51.2011 104.474 57.9011 95.0744 64.7011C79.9744 75.6011 66.3744 88.2011 53.7744 101.901C46.5744 109.701 39.9744 118.001 33.3744 126.201C24.6744 137.001 17.2744 148.801 10.2744 160.701C7.27443 165.801 4.67443 171.101 1.87443 176.301C1.47443 177.001 0.674433 178.301 0.374433 179.101C-0.425567 180.801 -0.0255668 181.901 2.37443 181.401L2.17443 181.501Z" fill="#245866"/>
<path d="M426.874 161.901C425.474 153.001 424.074 144.201 422.074 135.401C420.374 127.701 417.974 120.201 415.574 112.701C413.174 105.301 410.174 98.1012 407.474 90.8012C406.774 88.9012 406.074 87.0012 405.274 85.2012C404.474 83.3012 403.274 82.2012 400.974 82.2012C393.274 82.2012 385.474 82.2012 377.774 82.2012H373.574C372.874 82.2012 372.474 83.0012 372.974 83.6012C373.874 84.6012 374.974 85.8012 375.374 86.3012C382.974 94.3012 389.574 103.001 395.874 112.101C402.774 122.001 408.774 132.401 413.674 143.301C417.574 152.001 420.674 161.101 423.974 170.101C424.774 172.401 425.274 174.801 426.074 177.001C426.274 177.701 426.474 178.101 426.874 178.801C427.174 179.301 427.874 179.501 428.374 179.201C428.674 179.101 428.774 178.801 428.774 178.501C428.174 173.001 427.674 167.401 426.874 161.901V161.901Z" fill="#245866"/>
<path d="M585.174 85.6011C591.674 89.1011 596.674 93.9011 600.174 100.201C603.674 106.401 605.474 113.601 605.474 121.601C605.474 129.601 603.674 136.601 600.174 142.901C596.674 149.101 591.575 154.001 585.075 157.601C578.575 161.101 571.074 162.901 562.474 162.901H529.875V80.4011H562.474C571.174 80.4011 578.674 82.1011 585.174 85.6011V85.6011ZM576.474 137.101C580.274 133.401 582.174 128.301 582.174 121.601C582.174 114.901 580.274 109.601 576.474 105.901C572.674 102.201 567.374 100.301 560.674 100.301H552.674V142.601H560.674C567.374 142.601 572.674 140.801 576.474 137.101Z" fill="#245866"/>
<path d="M615.675 112.201C618.175 107.101 621.475 103.201 625.775 100.501C629.975 97.8011 634.775 96.4011 639.975 96.4011C645.175 96.4011 648.375 97.3011 651.675 99.1011C654.975 100.901 657.475 103.301 659.275 106.301V97.2011H682.175V162.801H659.275V153.701C657.475 156.701 654.975 159.201 651.575 160.901C648.275 162.701 644.375 163.601 639.975 163.601C635.575 163.601 629.975 162.201 625.775 159.501C621.575 156.801 618.175 152.901 615.675 147.801C613.175 142.701 611.975 136.801 611.975 130.001C611.975 123.201 613.175 117.301 615.675 112.201ZM655.775 120.001C653.475 117.601 650.675 116.401 647.275 116.401C643.875 116.401 640.975 117.601 638.775 120.001C636.475 122.401 635.375 125.701 635.375 130.001C635.375 134.301 636.475 137.501 638.775 140.001C641.075 142.501 643.875 143.701 647.275 143.701C650.675 143.701 653.475 142.501 655.775 140.101C658.075 137.701 659.175 134.301 659.175 130.001C659.175 125.701 657.975 122.501 655.775 120.101V120.001Z" fill="#245866"/>
<path d="M733.874 143.301V162.801H723.974C707.174 162.801 698.874 154.501 698.874 137.901V116.301H690.774V97.2013H698.874V81.3013H721.874V97.2013H733.774V116.301H721.874V138.301C721.874 140.101 722.274 141.401 723.074 142.201C723.874 143.001 725.274 143.401 727.274 143.401H733.974L733.874 143.301Z" fill="#245866"/>
<path d="M744.375 112.201C746.875 107.101 750.175 103.201 754.475 100.501C758.675 97.8011 763.475 96.4011 768.675 96.4011C773.875 96.4011 777.075 97.3011 780.375 99.1011C783.675 100.901 786.175 103.301 787.975 106.301V97.2011H810.875V162.801H787.975V153.701C786.175 156.701 783.675 159.201 780.275 160.901C776.975 162.701 773.075 163.601 768.675 163.601C764.275 163.601 758.675 162.201 754.475 159.501C750.275 156.801 746.875 152.901 744.375 147.801C741.875 142.701 740.675 136.801 740.675 130.001C740.675 123.201 741.875 117.301 744.375 112.201ZM784.475 120.001C782.175 117.601 779.375 116.401 775.975 116.401C772.575 116.401 769.675 117.601 767.475 120.001C765.175 122.401 764.075 125.701 764.075 130.001C764.075 134.301 765.175 137.501 767.475 140.001C769.775 142.501 772.575 143.701 775.975 143.701C779.375 143.701 782.175 142.501 784.475 140.101C786.775 137.701 787.875 134.301 787.875 130.001C787.875 125.701 786.675 122.501 784.475 120.101V120.001Z" fill="#245866"/>
<path d="M827.274 100.601C830.974 94.3012 835.974 89.4012 842.374 85.8012C848.774 82.3012 855.674 80.5012 863.274 80.5012C870.874 80.5012 879.574 82.6012 886.374 86.9012C893.074 91.1012 897.974 97.2012 901.074 105.001H885.074C882.974 100.701 880.074 97.5012 876.274 95.4012C872.574 93.3012 868.174 92.2012 863.274 92.2012C858.374 92.2012 853.074 93.4012 848.874 95.8012C844.674 98.2012 841.374 101.701 838.974 106.201C836.574 110.701 835.374 116.001 835.374 122.001C835.374 128.001 836.574 133.301 838.974 137.801C841.374 142.301 844.674 145.801 848.874 148.301C853.074 150.801 857.874 152.001 863.274 152.001C868.674 152.001 872.474 150.901 876.274 148.801C880.074 146.701 882.974 143.501 885.074 139.201H901.074C898.074 147.001 893.174 153.001 886.374 157.201C879.674 161.401 871.974 163.501 863.274 163.501C854.574 163.501 848.674 161.701 842.374 158.201C836.074 154.701 831.074 149.701 827.374 143.401C823.674 137.101 821.774 130.001 821.774 122.001C821.774 114.001 823.674 106.901 827.374 100.601H827.274Z" fill="#245866"/>
<path d="M937.575 100.101C940.775 98.3011 944.675 97.4011 949.075 97.4011V111.201H945.675C940.475 111.201 936.475 112.501 933.775 115.201C931.075 117.901 929.775 122.401 929.775 129.001V162.901H916.475V98.4011H929.775V107.801C931.675 104.501 934.275 102.001 937.575 100.101V100.101Z" fill="#245866"/>
<path d="M1019.77 98.4013V162.801H1006.47V155.201C1004.37 157.901 1001.57 159.901 998.275 161.501C994.875 163.001 991.275 163.801 987.475 163.801C983.675 163.801 977.875 162.701 973.875 160.601C969.875 158.501 966.675 155.401 964.375 151.201C962.075 147.101 960.975 142.101 960.975 136.201V98.3013H974.175V134.201C974.175 140.001 975.575 144.401 978.475 147.501C981.375 150.601 985.275 152.101 990.275 152.101C995.275 152.101 999.175 150.601 1002.17 147.501C1005.07 144.401 1006.57 140.001 1006.57 134.201V98.3013H1019.87L1019.77 98.4013Z" fill="#245866"/>
<path d="M1083.37 100.501C1087.37 102.601 1090.57 105.701 1092.77 109.901C1095.07 114.001 1096.17 119.001 1096.17 124.901V162.901H1082.97V126.901C1082.97 121.101 1081.57 116.701 1078.67 113.601C1075.77 110.501 1071.87 109.001 1066.87 109.001C1061.87 109.001 1057.97 110.501 1054.97 113.601C1052.07 116.701 1050.57 121.101 1050.57 126.901V162.901H1037.27V98.4011H1050.57V105.801C1052.77 103.201 1055.57 101.101 1058.97 99.6011C1062.37 98.1011 1065.97 97.4011 1069.77 97.4011C1073.57 97.4011 1079.37 98.5011 1083.37 100.601V100.501Z" fill="#245866"/>
<path d="M1112.77 113.101C1115.47 108.101 1119.17 104.201 1123.97 101.501C1128.77 98.8011 1134.17 97.4011 1140.37 97.4011C1146.57 97.4011 1154.57 99.3011 1159.67 103.001C1164.77 106.701 1168.27 112.001 1169.97 118.801H1155.57C1154.37 115.601 1152.57 113.101 1149.97 111.301C1147.37 109.501 1144.17 108.601 1140.27 108.601C1136.37 108.601 1130.47 110.501 1127.27 114.401C1124.07 118.301 1122.37 123.701 1122.37 130.601C1122.37 137.501 1123.97 143.001 1127.27 146.901C1130.47 150.801 1134.87 152.701 1140.27 152.701C1145.67 152.701 1153.07 149.301 1155.57 142.501H1169.97C1168.07 149.001 1164.57 154.201 1159.47 158.101C1154.37 162.001 1147.97 163.901 1140.27 163.901C1132.57 163.901 1128.67 162.501 1123.87 159.801C1119.07 157.001 1115.37 153.101 1112.67 148.101C1109.97 143.101 1108.67 137.201 1108.67 130.601C1108.67 124.001 1109.97 118.101 1112.67 113.101H1112.77Z" fill="#245866"/>
<path d="M1229.77 100.501C1233.67 102.601 1236.67 105.701 1238.87 109.901C1241.07 114.001 1242.17 119.001 1242.17 124.901V162.901H1228.97V126.901C1228.97 121.101 1227.57 116.701 1224.67 113.601C1221.77 110.501 1217.87 109.001 1212.87 109.001C1207.87 109.001 1203.97 110.501 1200.97 113.601C1198.07 116.701 1196.57 121.101 1196.57 126.901V162.901H1183.27V76.3013H1196.57V105.901C1198.87 103.201 1201.67 101.101 1205.17 99.6013C1208.67 98.1013 1212.47 97.4013 1216.57 97.4013C1220.67 97.4013 1225.87 98.5013 1229.77 100.601V100.501Z" fill="#245866"/>
<path d="M1258.47 161.201C1256.87 159.601 1255.97 157.501 1255.97 155.101C1255.97 152.701 1256.77 150.701 1258.47 149.001C1260.17 147.301 1262.17 146.501 1264.57 146.501C1266.97 146.501 1268.87 147.301 1270.57 149.001C1272.27 150.701 1273.07 152.701 1273.07 155.101C1273.07 157.501 1272.27 159.501 1270.57 161.201C1268.87 162.901 1266.97 163.701 1264.57 163.701C1262.17 163.701 1260.17 162.901 1258.47 161.201Z" fill="#245866"/>
<path d="M1288.07 87.4012C1286.47 85.8012 1285.57 83.7012 1285.57 81.3012C1285.57 78.9012 1286.37 76.9012 1288.07 75.2012C1289.77 73.5012 1291.77 72.7012 1294.17 72.7012C1296.57 72.7012 1298.47 73.5012 1300.17 75.2012C1301.87 76.9012 1302.67 78.9012 1302.67 81.3012C1302.67 83.7012 1301.87 85.7012 1300.17 87.4012C1298.47 89.1012 1296.57 89.9012 1294.17 89.9012C1291.77 89.9012 1289.77 89.1012 1288.07 87.4012ZM1300.67 98.4012V162.801H1287.37V98.4012H1300.67Z" fill="#245866"/>
<path d="M1329.67 159.701C1324.77 156.901 1320.87 153.001 1318.07 148.001C1315.27 143.001 1313.87 137.101 1313.87 130.501C1313.87 123.901 1315.27 118.101 1318.17 113.101C1321.07 108.001 1324.97 104.101 1329.97 101.401C1334.97 98.7013 1340.57 97.3013 1346.67 97.3013C1352.77 97.3013 1358.37 98.7013 1363.37 101.401C1368.37 104.101 1372.27 108.001 1375.17 113.101C1378.07 118.201 1379.47 124.001 1379.47 130.501C1379.47 137.001 1377.97 142.901 1375.07 147.901C1372.07 153.001 1368.07 156.901 1362.97 159.701C1357.87 162.501 1352.27 163.801 1346.07 163.801C1339.87 163.801 1334.47 162.401 1329.57 159.701H1329.67ZM1355.77 149.801C1358.77 148.201 1361.17 145.701 1363.07 142.401C1364.97 139.101 1365.87 135.201 1365.87 130.501C1365.87 125.801 1364.97 121.901 1363.17 118.601C1361.37 115.401 1358.97 112.901 1356.07 111.301C1353.07 109.701 1349.87 108.801 1346.47 108.801C1343.07 108.801 1339.87 109.601 1336.97 111.301C1334.07 113.001 1331.77 115.401 1329.97 118.601C1328.27 121.801 1327.37 125.801 1327.37 130.501C1327.37 137.401 1329.17 142.801 1332.67 146.601C1336.17 150.401 1340.67 152.301 1346.07 152.301C1351.47 152.301 1352.67 151.501 1355.67 149.801H1355.77Z" fill="#245866"/>
</svg>
